<svg id="Layer_2" data-name="Layer 2" xmlns="http://www.w3.org/2000/svg" viewBox="0 0 300 300"><defs><style>.cls-1{fill:#ff5a5a;}.cls-2{fill:#fff;}</style></defs><title>Eyecatcher</title><circle class="cls-1" cx="150" cy="150" r="148.84"/><path class="cls-2" d="M47.42,157l.92,6.35-3.42.49-2.47-17.1,6.23-.9a6.49,6.49,0,0,1,4.78.79,5.23,5.23,0,0,1,2.11,3.73,5.09,5.09,0,0,1-1,4.13,6.52,6.52,0,0,1-4.31,2.11Zm4.68-6.14a2.63,2.63,0,0,0-1-1.86,3.27,3.27,0,0,0-2.4-.35l-2.45.35L47,154.3l2.45-.35Q52.47,153.52,52.09,150.9Z"/><path class="cls-2" d="M63,148.12A5.33,5.33,0,0,1,65.67,147l.53,3.66-1,.14q-3.76.54-3.25,4l.94,6.47-3.42.49-1.94-13.42,3.42-.49.37,2.57A5.67,5.67,0,0,1,63,148.12Z"/><path class="cls-2" d="M77.41,146.15a6.09,6.09,0,0,1,2.8,2,8,8,0,0,1,1.06,7.33,6.2,6.2,0,0,1-2.11,2.74,7.93,7.93,0,0,1-7,1,6.19,6.19,0,0,1-2.8-2,8,8,0,0,1-1.06-7.33,6.09,6.09,0,0,1,2.11-2.74,8,8,0,0,1,7-1Zm-5.49,4a4.84,4.84,0,0,0,.84,5.84,3.46,3.46,0,0,0,4.85-.7,4.83,4.83,0,0,0-.84-5.84,3.46,3.46,0,0,0-4.85.7Z"/><path class="cls-2" d="M91.35,144.11a4.4,4.4,0,0,1,2,1.91l-.4-2.79,3.39-.49,1.95,13.47a7.53,7.53,0,0,1-.25,3.46,5.51,5.51,0,0,1-1.87,2.66,7.05,7.05,0,0,1-3.43,1.36,7.57,7.57,0,0,1-4.9-.7,5.77,5.77,0,0,1-2.72-3.44l3.37-.49a2.81,2.81,0,0,0,1.36,1.42,3.77,3.77,0,0,0,2.23.26,3.39,3.39,0,0,0,2.3-1.23,3.59,3.59,0,0,0,.53-2.81l-.41-2.86a4.46,4.46,0,0,1-1.41,2.42,5.15,5.15,0,0,1-2.79,1.23,5.82,5.82,0,0,1-3.17-.38A5.62,5.62,0,0,1,84.68,155a9.3,9.3,0,0,1-1.06-7.34A5.62,5.62,0,0,1,85.39,145a5.83,5.83,0,0,1,2.93-1.27A5.21,5.21,0,0,1,91.35,144.11ZM87.41,148a4.08,4.08,0,0,0-.56,3,4,4,0,0,0,1.38,2.71,3.71,3.71,0,0,0,5.12-.77,4.54,4.54,0,0,0-.82-5.67,3.42,3.42,0,0,0-2.71-.68A3.37,3.37,0,0,0,87.41,148Z"/><path class="cls-2" d="M105,142.05a5.33,5.33,0,0,1,2.65-1.14l.53,3.66-1,.14q-3.76.54-3.25,4l.94,6.47-3.42.49-1.94-13.42,3.42-.49.37,2.57A5.67,5.67,0,0,1,105,142.05Z"/><path class="cls-2" d="M117.78,140.29a4.4,4.4,0,0,1,2,1.91l-.4-2.79,3.39-.49,1.94,13.42-3.39.49-.41-2.81a4.46,4.46,0,0,1-1.41,2.42,5.15,5.15,0,0,1-2.79,1.23,5.82,5.82,0,0,1-3.17-.38,5.62,5.62,0,0,1-2.47-2.08,9.3,9.3,0,0,1-1.06-7.34,5.62,5.62,0,0,1,1.77-2.69,5.83,5.83,0,0,1,2.93-1.27A5.21,5.21,0,0,1,117.78,140.29Zm-3.94,3.86a4.08,4.08,0,0,0-.56,3,4,4,0,0,0,1.38,2.71,3.71,3.71,0,0,0,5.12-.77,4.54,4.54,0,0,0-.82-5.67,3.42,3.42,0,0,0-2.71-.68A3.37,3.37,0,0,0,113.84,144.14Z"/><path class="cls-2" d="M147,136.76a6.12,6.12,0,0,1,2,4.09l1.13,7.8-3.39.49-1.07-7.41a3.38,3.38,0,0,0-1.13-2.27,2.86,2.86,0,0,0-2.29-.52,3,3,0,0,0-2.15,1.23,3.7,3.7,0,0,0-.47,2.74l1,7.12-3.39.49-1.07-7.41a3.38,3.38,0,0,0-1.13-2.27,2.86,2.86,0,0,0-2.29-.52,3,3,0,0,0-2.15,1.23,3.7,3.7,0,0,0-.47,2.74l1,7.12-3.42.49-1.94-13.42,3.42-.49.37,2.54a4.2,4.2,0,0,1,1.39-2.27,5,5,0,0,1,2.57-1.1,5.14,5.14,0,0,1,2.93.37,4.78,4.78,0,0,1,2.13,2,5.4,5.4,0,0,1,8.32-2.73Z"/><path class="cls-2" d="M165.25,133.86a5.41,5.41,0,0,1,2.32,3l-3.2.46a2.69,2.69,0,0,0-1.1-1.42,2.65,2.65,0,0,0-1.85-.33,2.05,2.05,0,0,0-1.3.61,1.4,1.4,0,0,0-.32,1.18,1.14,1.14,0,0,0,.52.84,2.81,2.81,0,0,0,1,.39q.61.11,1.74.22a17.48,17.48,0,0,1,2.59.36,4.16,4.16,0,0,1,1.82.95,3.31,3.31,0,0,1,1,2.09,3.42,3.42,0,0,1-.94,3,5.73,5.73,0,0,1-3.47,1.59,6.91,6.91,0,0,1-4.36-.57,5,5,0,0,1-2.4-3.08l3.27-.47a2.23,2.23,0,0,0,1.1,1.44,3.19,3.19,0,0,0,2,.29,1.92,1.92,0,0,0,1.27-.62,1.44,1.44,0,0,0,.3-1.17,1.23,1.23,0,0,0-.54-.89,2.73,2.73,0,0,0-1.07-.41q-.62-.11-1.75-.22a19.09,19.09,0,0,1-2.53-.34,3.93,3.93,0,0,1-1.76-.9,3.2,3.2,0,0,1-1-2,3.53,3.53,0,0,1,.92-3,5.71,5.71,0,0,1,3.52-1.62A6,6,0,0,1,165.25,133.86Zm-.54-4.25-3.29,2.53-3.9-1.49-.33-2.3,3.91,1.54,3.29-2.58Z"/><path class="cls-2" d="M178.33,141.59l.42,2.93-1.79.26a5,5,0,0,1-3.61-.59,4.77,4.77,0,0,1-1.72-3.46l-.84-5.81-1.87.27-.42-2.88,1.87-.27-.48-3.32,3.42-.49.48,3.32,3-.43.42,2.88-3,.43.85,5.86a1.91,1.91,0,0,0,.58,1.3,1.82,1.82,0,0,0,1.36.2Z"/><path class="cls-2" d="M187.52,130.2a4.4,4.4,0,0,1,2,1.91l-.4-2.79,3.39-.49,1.94,13.42-3.39.49-.41-2.81a4.46,4.46,0,0,1-1.41,2.42,5.15,5.15,0,0,1-2.79,1.23,5.82,5.82,0,0,1-3.17-.38,5.62,5.62,0,0,1-2.47-2.08,9.3,9.3,0,0,1-1.06-7.34,5.62,5.62,0,0,1,1.77-2.69,5.83,5.83,0,0,1,2.93-1.27A5.21,5.21,0,0,1,187.52,130.2Zm-3.94,3.86a4.08,4.08,0,0,0-.56,3,4,4,0,0,0,1.38,2.71,3.71,3.71,0,0,0,5.12-.77,4.54,4.54,0,0,0-.82-5.67,3.42,3.42,0,0,0-2.71-.68A3.37,3.37,0,0,0,183.58,134.06Z"/><path class="cls-2" d="M201.12,128.14a5.33,5.33,0,0,1,2.65-1.14l.53,3.66-1,.14q-3.76.54-3.25,4l.94,6.47-3.42.49-1.94-13.42,3.42-.49.37,2.57A5.67,5.67,0,0,1,201.12,128.14Z"/><path class="cls-2" d="M214.38,136.38l.42,2.93-1.79.26a5,5,0,0,1-3.61-.59,4.77,4.77,0,0,1-1.72-3.46l-.84-5.81L205,130l-.42-2.88,1.87-.27-.48-3.32,3.42-.49.48,3.32,3-.43.42,2.88-3,.43.85,5.86a1.91,1.91,0,0,0,.58,1.3,1.82,1.82,0,0,0,1.36.2Z"/><path class="cls-2" d="M228.15,123.68l1.94,13.42-3.42.49-.39-2.71a4.33,4.33,0,0,1-1.45,2.37,5.27,5.27,0,0,1-2.71,1.17,4.8,4.8,0,0,1-3.93-1,6.19,6.19,0,0,1-2-4.06l-1.13-7.8,3.39-.49,1.07,7.41a3.54,3.54,0,0,0,1.18,2.36,2.93,2.93,0,0,0,2.36.56,3.07,3.07,0,0,0,2.21-1.28,3.9,3.9,0,0,0,.48-2.84l-1-7.12Z"/><path class="cls-2" d="M231.41,140.42l1-.14a1.54,1.54,0,0,0,1-.47,1.49,1.49,0,0,0,.17-1.14l-2.24-15.46,3.42-.49L237,138.18q.63,4.36-3.75,5l-1.4.2Zm-.26-19.76a1.71,1.71,0,0,1-.77-1.24,1.74,1.74,0,0,1,.39-1.43,2.22,2.22,0,0,1,1.45-.74,2.19,2.19,0,0,1,1.6.31,1.75,1.75,0,0,1,.77,1.25,1.71,1.71,0,0,1-.39,1.4,2.52,2.52,0,0,1-3.05.44Z"/><path class="cls-2" d="M251.4,127.83l-9.83,1.42a3.73,3.73,0,0,0,1.35,2.5,3.15,3.15,0,0,0,2.35.53,3.27,3.27,0,0,0,1.89-.87,2.61,2.61,0,0,0,.78-1.72l3.61-.52a5.84,5.84,0,0,1-.77,2.68,6,6,0,0,1-2,2.07,7.76,7.76,0,0,1-6.56.74,5.93,5.93,0,0,1-2.72-2,8.43,8.43,0,0,1-1.06-7.33,5.84,5.84,0,0,1,2-2.73,7.31,7.31,0,0,1,3.37-1.33,7.15,7.15,0,0,1,3.6.32,5.87,5.87,0,0,1,2.63,1.93,6.64,6.64,0,0,1,1.29,3.16A6.51,6.51,0,0,1,251.4,127.83Zm-4.76-3.39a3.31,3.31,0,0,0-2.41-.52,3.39,3.39,0,0,0-2.2,1.18,3.5,3.5,0,0,0-.68,2.65l6.52-.94A3,3,0,0,0,246.64,124.44Z"/><path class="cls-2" d="M103.61,184.25l1.94-10.5,3.63-.53-3,14.14L102,188l-6.91-12.7,3.66-.53Z"/><path class="cls-2" d="M126.18,171.44a6.09,6.09,0,0,1,2.8,2,8,8,0,0,1,1.06,7.33,6.2,6.2,0,0,1-2.11,2.74,7.93,7.93,0,0,1-7,1,6.19,6.19,0,0,1-2.8-2A8,8,0,0,1,117,175.2a6.09,6.09,0,0,1,2.11-2.74,8,8,0,0,1,7-1Zm-5.49,4a4.84,4.84,0,0,0,.84,5.84,3.46,3.46,0,0,0,4.85-.7,4.83,4.83,0,0,0-.84-5.84,3.46,3.46,0,0,0-4.85.7Z"/><path class="cls-2" d="M141.65,182.23,136.37,177l.85,5.86-3.42.49-2.59-17.93,3.42-.49L136.08,175l3.6-6.21,4-.59-4.68,7.5,6.76,5.9Z"/><path class="cls-2" d="M154.21,177.42l.42,2.93-1.79.26a5,5,0,0,1-3.61-.59,4.77,4.77,0,0,1-1.72-3.46l-.84-5.81-1.87.27-.42-2.88,1.87-.27-.48-3.32,3.42-.49.48,3.32,3-.43.42,2.88-3,.43.85,5.86a1.91,1.91,0,0,0,.58,1.3,1.82,1.82,0,0,0,1.36.2Z"/><path class="cls-2" d="M165,165.83a6.09,6.09,0,0,1,2.8,2,8,8,0,0,1,1.06,7.33,6.2,6.2,0,0,1-2.11,2.74,7.93,7.93,0,0,1-7,1,6.19,6.19,0,0,1-2.8-2,8,8,0,0,1-1.06-7.33,6.09,6.09,0,0,1,2.11-2.74,8,8,0,0,1,7-1Zm-5.49,4a4.84,4.84,0,0,0,.84,5.84,3.46,3.46,0,0,0,4.85-.7,4.83,4.83,0,0,0-.84-5.84,3.46,3.46,0,0,0-4.85.7Zm5-8.3-5.19,3.42-.34-2.33,5.15-3.71Z"/><path class="cls-2" d="M181.81,163.39a5.62,5.62,0,0,1,2.47,2.08,9.31,9.31,0,0,1,1.06,7.34,5.62,5.62,0,0,1-1.77,2.69,5.82,5.82,0,0,1-2.93,1.27,5.09,5.09,0,0,1-3-.39,4.48,4.48,0,0,1-2-1.92l.41,2.81-3.42.49L170,159.83l3.42-.49,1.05,7.29a4.42,4.42,0,0,1,1.4-2.4,5.15,5.15,0,0,1,2.78-1.22A5.83,5.83,0,0,1,181.81,163.39Zm-6.21,4.17a4.54,4.54,0,0,0,.82,5.67,3.71,3.71,0,0,0,5.13-.72,4,4,0,0,0,.56-3,4.08,4.08,0,0,0-1.38-2.72,3.38,3.38,0,0,0-2.72-.67A3.42,3.42,0,0,0,175.6,167.56Z"/><path class="cls-2" d="M192.5,161.73a5.33,5.33,0,0,1,2.65-1.14l.53,3.66-1,.14q-3.76.54-3.25,4l.94,6.47-3.42.49L187,162l3.42-.49.37,2.57A5.67,5.67,0,0,1,192.5,161.73Z"/><path class="cls-2" d="M196.51,155.29a2.52,2.52,0,0,1,3.05-.44,1.74,1.74,0,0,1,.78,1.26,1.71,1.71,0,0,1-.39,1.4,2.52,2.52,0,0,1-3.05.44,1.71,1.71,0,0,1-.77-1.24A1.74,1.74,0,0,1,196.51,155.29Zm4,4.73,1.94,13.42-3.42.49-1.94-13.42Z"/><path class="cls-2" d="M207.85,169l.52,3.56-3.68.53-.52-3.56Z"/></svg>