<svg id="Layer_2" data-name="Layer 2" xmlns="http://www.w3.org/2000/svg" viewBox="0 0 120 120"><defs><style>.cls-1{fill:#ff5a5a;}.cls-2{fill:#202535;}</style></defs><title>Icon_code</title><circle class="cls-1" cx="87.52" cy="92.95" r="22.05"/><circle class="cls-2" cx="67.38" cy="36.19" r="1.49"/><path class="cls-2" d="M59.93,52.58a7.46,7.46,0,0,0,7.45-7.45h-3a4.47,4.47,0,1,1-8.94,0h-3A7.46,7.46,0,0,0,59.93,52.58Z"/><path class="cls-2" d="M87.07,65.52l-3.3-1.1V58.54a4.46,4.46,0,0,0-1.49-3.33V28.74a22.35,22.35,0,1,0-44.71,0V40.66c0,.06,0,.13,0,.19V55.21a4.46,4.46,0,0,0-1.49,3.33v5.88l-3.3,1.1a10.41,10.41,0,0,0-7.13,9.89V98.78H94.21V75.42A10.42,10.42,0,0,0,87.07,65.52ZM43.61,44.88a4.46,4.46,0,0,1-3.05-4.21v0a4.46,4.46,0,0,1,3-4.18v7.18C43.54,44.06,43.58,44.47,43.61,44.88ZM44.15,48a16.16,16.16,0,0,0,3.13,6.05H40.56V46.58A7.47,7.47,0,0,0,44.15,48Zm9.7-12.42a40,40,0,0,0,13.07-7.77L70.09,25a21,21,0,0,1,3.25,11.18v7.45a13.28,13.28,0,0,1-5,10.43H51.53a13.29,13.29,0,0,1-5-10.43V37.45a40.44,40.44,0,0,0,4.53-1,1.47,1.47,0,0,0,1.43,1.19A1.49,1.49,0,0,0,54,36.19,1.46,1.46,0,0,0,53.85,35.6ZM80.79,86.85a3,3,0,0,1-3,3H42a3,3,0,0,1-3-3ZM45,83.87V63h29.8V83.87Zm32.78,0V60H42V83.87h-3V58.54a1.49,1.49,0,0,1,1.49-1.49H79.3a1.49,1.49,0,0,1,1.49,1.49V83.87Zm1.49-29.8H72.58A16.14,16.14,0,0,0,75.71,48a7.48,7.48,0,0,0,3.59-1.44v7.49Zm-3.05-9.19c0-.41.07-.82.07-1.24V36.46a4.44,4.44,0,0,1-.07,8.42ZM40.56,28.74a19.37,19.37,0,1,1,38.74,0v6a7.39,7.39,0,0,0-3.17-1.4,24,24,0,0,0-4.57-11.46l-1-1.3-5.64,5a37,37,0,0,1-18.42,8.83v-4h-3v2.9a7.4,7.4,0,0,0-3,1.38ZM28.64,95.8V75.42a7.44,7.44,0,0,1,5.1-7.07l2.36-.79V86.85a6,6,0,0,0,6,6H49.5a4.46,4.46,0,0,1,4.2,3Zm34.43,0H56.8a7.4,7.4,0,0,0-1.38-3h9A7.38,7.38,0,0,0,63.06,95.8Zm28.16,0H66.17a4.46,4.46,0,0,1,4.2-3h7.45a6,6,0,0,0,6-6V67.56l2.36.79a7.44,7.44,0,0,1,5.1,7.07Z"/><polygon class="cls-2" points="52.78 66.59 47.64 73.44 52.78 80.3 55.16 78.51 51.36 73.44 55.16 68.38 52.78 66.59"/><polygon class="cls-2" points="64.7 68.38 68.5 73.44 64.7 78.51 67.08 80.3 72.23 73.44 67.08 66.59 64.7 68.38"/><rect class="cls-2" x="51.41" y="71.95" width="15.56" height="2.98" transform="translate(-28.16 109.05) rotate(-73.31)"/></svg>