<svg id="Layer_2" data-name="Layer 2" xmlns="http://www.w3.org/2000/svg" viewBox="0 0 120 120"><defs><style>.cls-1{fill:#ff5a5a;}.cls-2{fill:#202535;}</style></defs><title>Icon_girls</title><circle class="cls-1" cx="85.79" cy="92.95" r="22.05"/><path class="cls-2" d="M67.45,37.68A1.49,1.49,0,1,1,66,39.17a1.49,1.49,0,0,1,1.49-1.49Z"/><path class="cls-2" d="M52.55,37.68a1.49,1.49,0,1,1-1.49,1.49,1.49,1.49,0,0,1,1.49-1.49Z"/><path class="cls-2" d="M60,52.58a6,6,0,0,0,6-6H63a3,3,0,0,1-6,0H54a6,6,0,0,0,6,6Z"/><path class="cls-2" d="M88.31,95.8H77.88V93.6a10.91,10.91,0,0,0,1.28-16.52L78,76l2.16-8.63,3,1a7.44,7.44,0,0,1,5.1,7.07V95.8ZM44.16,92.88a7.93,7.93,0,0,1-1.21-12.2l2.31-2.31-3-11.86,3.83-1.28C47.75,67.68,51.75,72,60,72s12.25-4.27,13.87-6.72l3.49,1.16L74.74,76.88,77,79.19a7.93,7.93,0,0,1-1.21,12.2L74.9,92V95.8H45.1V93.51l-.94-.63ZM31.68,95.8V75.42a7.44,7.44,0,0,1,5.1-7.07l2.68-.89,2.5,10-1.12,1.12a10.91,10.91,0,0,0,1.28,16.52v.7Zm8.94-49.22A7.37,7.37,0,0,0,44.22,48a16.43,16.43,0,0,0,6.84,9.34v3.09L40.63,63.92V46.58ZM60,9.36A19.4,19.4,0,0,1,79.37,28.74v6a7.38,7.38,0,0,0-3-1.38V28.74h-3v3h-3v-3h-3v3h-3v-3h-3v3h-3v-3h-3v3h-3v-3h-3v3h-3v-3h-3v4.62a7.4,7.4,0,0,0-3,1.38v-6A19.4,19.4,0,0,1,60,9.36ZM52.22,63.2a12.24,12.24,0,0,0,15.56,0l3.14,1C69.41,66.18,66.17,69,60,69s-9.41-2.79-10.92-4.73l3.14-1ZM60,60a16.28,16.28,0,0,0,6-1.14v2A9.78,9.78,0,0,1,60,63a9.89,9.89,0,0,1-6-2.17V58.89A16.28,16.28,0,0,0,60,60ZM76.39,36.46a4.44,4.44,0,0,1-.06,8.41c0-.41.06-.82.06-1.24V36.46ZM46.59,34.7H73.41v8.94a13.41,13.41,0,1,1-26.82,0V34.7ZM43.67,44.87a4.44,4.44,0,0,1-.06-8.41v7.18c0,.42,0,.83.06,1.24ZM68.94,60.45V57.36A16.44,16.44,0,0,0,75.78,48a7.37,7.37,0,0,0,3.59-1.44V63.92L68.94,60.45Zm15.22,5.07-1.81-.6V28.74a22.35,22.35,0,0,0-44.71,0V64.92l-1.81.6a10.42,10.42,0,0,0-7.13,9.9V98.78H91.29V75.42a10.42,10.42,0,0,0-7.13-9.9Z"/><polygon class="cls-2" points="19.76 54.07 22.74 54.07 22.74 58.54 19.76 58.54 19.76 54.07 19.76 54.07"/><polygon class="cls-2" points="19.76 64.5 22.74 64.5 22.74 68.97 19.76 68.97 19.76 64.5 19.76 64.5"/><polygon class="cls-2" points="13.8 60.03 18.27 60.03 18.27 63.01 13.8 63.01 13.8 60.03 13.8 60.03"/><polygon class="cls-2" points="24.23 60.03 28.7 60.03 28.7 63.01 24.23 63.01 24.23 60.03 24.23 60.03"/><polygon class="cls-2" points="92.22 6.38 95.2 6.38 95.2 10.85 92.22 10.85 92.22 6.38 92.22 6.38"/><polygon class="cls-2" points="92.22 16.82 95.2 16.82 95.2 21.29 92.22 21.29 92.22 16.82 92.22 16.82"/><polygon class="cls-2" points="86.26 12.34 90.73 12.34 90.73 15.32 86.26 15.32 86.26 12.34 86.26 12.34"/><polygon class="cls-2" points="96.69 12.34 101.17 12.34 101.17 15.32 96.69 15.32 96.69 12.34 96.69 12.34"/></svg>