<svg id="Layer_2" data-name="Layer 2" xmlns="http://www.w3.org/2000/svg" viewBox="0 0 120 120"><defs><style>.cls-1{fill:#ff5a5a;}.cls-2{fill:#202535;}</style></defs><title>Icon_money</title><circle class="cls-1" cx="93.94" cy="92.95" r="22.05"/><path class="cls-2" d="M37.69,39.17a4.46,4.46,0,0,1,3-4.2v8.39a4.46,4.46,0,0,1-3-4.19Zm3-10.43A19.4,19.4,0,0,1,60,9.36h1.07a13,13,0,0,1,12.4,9.35l.31,1.08h1.12a4.48,4.48,0,0,1,4.47,4.47v7.6a7.44,7.44,0,0,0-1.49-.15,9.09,9.09,0,0,1-7.75-4.39l-2.39-4L66.44,24.7a23.79,23.79,0,0,1-16.93,7H42.16a7.44,7.44,0,0,0-1.49.15V28.74ZM79.41,43.36V35a4.44,4.44,0,0,1,0,8.39ZM43.65,34.7H49.5a26.73,26.73,0,0,0,17.66-6.6l.46.76a12.08,12.08,0,0,0,8.82,5.74v12H43.65V34.7ZM36.2,76.42h-3V49.6H86.86V76.42h-3v3h6V46.62H79.41v-.15a7.43,7.43,0,0,0,2.93-13.26h0V24.27a7.46,7.46,0,0,0-6.34-7.37A16,16,0,0,0,61.11,6.38H60A22.38,22.38,0,0,0,37.69,28.74v4.47h0a7.43,7.43,0,0,0,2.93,13.26v.15H30.24V79.4h6v-3Z"/><path class="cls-2" d="M58.55,58.54h3A1.49,1.49,0,0,1,63,60h3a4.48,4.48,0,0,0-4.47-4.47V54.07h-3v1.49a4.47,4.47,0,0,0,0,8.94h3a1.49,1.49,0,0,1,0,3h-3A1.49,1.49,0,0,1,57.06,66h-3a4.48,4.48,0,0,0,4.47,4.47V72h3V70.46a4.47,4.47,0,0,0,0-8.94h-3a1.49,1.49,0,0,1,0-3Z"/><polygon class="cls-2" points="42.16 52.58 36.2 52.58 36.2 58.54 39.18 58.54 39.18 55.56 42.16 55.56 42.16 52.58 42.16 52.58"/><polygon class="cls-2" points="83.88 58.54 83.88 52.58 77.92 52.58 77.92 55.56 80.9 55.56 80.9 58.54 83.88 58.54 83.88 58.54"/><polygon class="cls-2" points="36.2 67.48 36.2 73.44 42.16 73.44 42.16 70.46 39.18 70.46 39.18 67.48 36.2 67.48 36.2 67.48"/><polygon class="cls-2" points="77.92 73.44 83.88 73.44 83.88 67.48 80.9 67.48 80.9 70.46 77.92 70.46 77.92 73.44 77.92 73.44"/><path class="cls-2" d="M39.49,85.63l8.71,3.73L45.62,95.8H35.42l4.07-10.17ZM42,79.4a4.74,4.74,0,0,1,8.78,3.55L49.3,86.59l-8.71-3.73L42,79.4Zm29.91,10,8.71-3.73L84.66,95.8H74.46l-2.58-6.44ZM69,81.15A4.73,4.73,0,0,1,78.1,79.4l1.39,3.46-8.71,3.73-1.46-3.65A4.76,4.76,0,0,1,69,81.15Zm28.28-2.09A16.42,16.42,0,0,0,94,71.7l-2.35,1.83a13.43,13.43,0,0,1,2.67,6L97,95.8H87.87l-7-17.51A7.72,7.72,0,0,0,66.55,84l4.7,11.75H48.83L53.53,84a7.72,7.72,0,1,0-14.32-5.76l-7,17.51H23.05l2.71-16.24a13.43,13.43,0,0,1,2.67-6L26.08,71.7a16.44,16.44,0,0,0-3.26,7.37L19.53,98.78h81L97.26,79.07Z"/><polygon class="cls-2" points="57.06 76.42 63.02 76.42 63.02 79.4 57.06 79.4 57.06 76.42 57.06 76.42"/></svg>