<svg id="Layer_2" data-name="Layer 2" xmlns="http://www.w3.org/2000/svg" viewBox="0 0 584.44 484.71"><defs><style>.cls-1{fill:#5c61e1;}.cls-2{fill:#534bbd;}.cls-3{fill:#b8b9f1;}.cls-4{fill:#d1d2e1;}.cls-5{fill:#b7baed;}.cls-6{fill:#f2f2f2;}.cls-7{fill:#00aced;}.cls-8{fill:#008ec4;}.cls-9{fill:#fff;}</style></defs><title>Illustration_4</title><path class="cls-1" d="M61.18,451.79c.16.59.3,1.19.43,1.79H550.33v-1.79Z"/><path class="cls-2" d="M438.33,195.08c-10,19.24-16.93,49.49-23.17,82.46q-2.43,12.87-3.6,25.93l-.37,4.08a100.69,100.69,0,0,1-1.79,11.9L385.24,433.35a6.78,6.78,0,0,1-2.81,4.17L349.62,452l48.62-4.3a2.85,2.85,0,0,0,2.43-1.83l4.17-11.5L426,363.57c6-16.92,11.23-34.25,11.69-53.94a118.69,118.69,0,0,1,5.36-32l15.85-45.38-2.52-15.45a6.7,6.7,0,0,0-1.64-3.4l-16.45-18.28Z"/><path class="cls-3" d="M384.62,434.78a6.79,6.79,0,0,1-2.35,2.75s-32.21,12.87-32.21,13.76,12.17-.06,12.9-.13l35.23-3.5c1.12-.1,3-.95,3.35-2l3.18-11a107.33,107.33,0,0,1-20.1.11Z"/><path class="cls-2" d="M350.3,453a.9.9,0,0,1,0-1.79c9.57-.1,30.66-2.17,39.11-3.27,3.6-.47,8.83-1.61,12.14-2a.9.9,0,0,1,1,.8c0,.49-.15.68-.64.73-3.29.33-8.67,1.73-12.25,2.2a225.65,225.65,0,0,1-27,2.35L350.3,453Z"/><path class="cls-2" d="M382.94,439.79a.87.87,0,0,1-.56-.21c-1.93-1.6-3.87-1.64-6.09-.13a.9.9,0,0,1-1-1.48c2.86-1.95,5.71-1.86,8.24.23a.9.9,0,0,1-.57,1.58Z"/><path class="cls-2" d="M376.12,442.74a.89.89,0,0,1-.57-.21c-1.92-1.6-3.86-1.64-6.09-.13a.89.89,0,1,1-1-1.48c2.86-1.95,5.71-1.87,8.24.23a.9.9,0,0,1,.12,1.26.89.89,0,0,1-.69.32Z"/><path class="cls-2" d="M390.4,449.07A.87.87,0,0,1,390,449a.9.9,0,0,1-.33-1.22c2.55-4.39,6.23-9.1,14.25-10.72a.9.9,0,0,1,.36,1.76c-7.32,1.48-10.72,5.82-13.06,9.87a.89.89,0,0,1-.77.45Z"/><polygon class="cls-4" points="329.07 253.7 70.37 253.7 70.37 57.66 329.07 57.66 329.07 253.7 329.07 253.7"/><polygon class="cls-1" points="329.07 76.46 70.37 76.46 70.37 57.66 329.07 57.66 329.07 76.46 329.07 76.46"/><polygon class="cls-5" points="390.84 221.47 198.88 221.47 198.88 112.81 390.84 112.81 390.84 221.47 390.84 221.47"/><path class="cls-1" d="M241.84,129.91a18.7,18.7,0,1,0,18.71,18.7,18.72,18.72,0,0,0-18.71-18.7Zm0,40.09a21.39,21.39,0,1,1,21.39-21.39A21.41,21.41,0,0,1,241.84,170Z"/><polygon class="cls-6" points="305.75 142.67 293.81 142.67 293.81 130.74 305.75 130.74 305.75 142.67 305.75 142.67"/><polygon class="cls-6" points="305.75 173.11 293.81 173.11 293.81 161.17 305.75 161.17 305.75 173.11 305.75 173.11"/><polygon class="cls-6" points="305.75 203.55 293.81 203.55 293.81 191.61 305.75 191.61 305.75 203.55 305.75 203.55"/><path class="cls-1" d="M284.27,210.39a.44.44,0,0,1-.45-.45v-85.6a.45.45,0,0,1,.45-.45.45.45,0,0,1,.45.45v85.6a.45.45,0,0,1-.45.45Z"/><path class="cls-1" d="M272.68,185.49H210.13a.45.45,0,0,1,0-.9h62.55a.45.45,0,1,1,0,.9Z"/><path class="cls-6" d="M272.68,196.83H210.13a.45.45,0,0,1,0-.9h62.55a.45.45,0,0,1,0,.9Z"/><path class="cls-6" d="M374.14,132.38H311.59a.45.45,0,1,1,0-.9h62.55a.45.45,0,1,1,0,.9Z"/><path class="cls-6" d="M357.13,140.73H311.59a.45.45,0,1,1,0-.9h45.54a.45.45,0,0,1,0,.9Z"/><path class="cls-6" d="M374.14,163.41H311.59a.45.45,0,0,1,0-.9h62.55a.45.45,0,0,1,0,.9Z"/><path class="cls-6" d="M357.13,171.77H311.59a.45.45,0,1,1,0-.9h45.54a.45.45,0,0,1,0,.9Z"/><path class="cls-6" d="M374.14,193.55H311.59a.45.45,0,0,1,0-.9h62.55a.45.45,0,0,1,0,.9Z"/><path class="cls-6" d="M357.13,201.9H311.59a.45.45,0,0,1,0-.9h45.54a.45.45,0,0,1,0,.9Z"/><path class="cls-6" d="M272.68,208.17H210.13a.45.45,0,0,1,0-.9h62.55a.45.45,0,1,1,0,.9Z"/><path class="cls-1" d="M443,36.11l2.73,17.38a.7.7,0,0,0,.85.57l4.74-1.14-.5,12.47a5.85,5.85,0,0,1-4.28,5.36c-6.31,1.79-12.38,6.49-18.46,11.12l4.1,41.46L441.35,170a12.36,12.36,0,0,1,.1,4.14l-3.12,21L454.46,213a6.91,6.91,0,0,1,1.77,4.28l5,91.23a102.56,102.56,0,0,0,1.25,11.34l3.62,21.79a73.78,73.78,0,0,1,1,11.05l1.29,83.95c-2.65,6.92-10.81,11.79-18.7,17.41a1.05,1.05,0,0,0,.78,1.9l31.13-3.47a5.78,5.78,0,0,0,5-5.12L491,398.45c1.71-21.79,2.26-42-1.06-57a151.67,151.67,0,0,1-2.81-17.59l-.69-7a129.69,129.69,0,0,1-.51-18.46l3.43-78.4a72.79,72.79,0,0,0-4.07-27.35l-7.12-20.2a17.83,17.83,0,0,1-.78-8.85l9.51-57.35,2.73-27c-8-4-16-8.07-22.93-9.41a7.72,7.72,0,0,1-6.21-5.91L456.1,43c-1.58-10.42-4.57-15.35-9.28-13.6A6.06,6.06,0,0,0,443,36.11Z"/><path class="cls-1" d="M428.08,81.88c-7,4.7-14.68,15.52-22.72,29.74-3.63,6.42-15.43,16.9-22.13,20.34-22.06,11.34-70.76,18.1-71.64,18-5.31-.93-5.62,0-10.72,1.74-.46.16,1.71.84,3.49,1,.68.07,2.7-.57,3.22-.14l1.59,3.39c-6-.7-14.28,2.79-21,7.62a.54.54,0,0,0,.55.93c5.56-2.61,11.67-4.74,15.48-4.47a.36.36,0,0,1,.13.68c-9,4.43-13.35,9.3-15.21,14.4a.44.44,0,0,0,.71.47c5.69-5.11,11.09-9.24,15.63-10.53a.15.15,0,0,1,.11.27,23.26,23.26,0,0,0-9.14,11.64.33.33,0,0,0,.55.34c3.64-4.11,7.27-7.3,10.88-9.1a.47.47,0,0,1,.55.73,19.19,19.19,0,0,0-3.8,6.68.23.23,0,0,0,.36.26c4.07-3.17,8-5.74,11.35-6.11,13.33-3.35,25.79-5.58,36-4.93,3.3.21,7.88-.66,11.17-.91,18.14-1.38,34.86-10.22,50-23,7-6.06,12.23-13,18.71-23.86l-4.1-35.21Z"/><path class="cls-3" d="M489.59,79.24c30.09,21.91,49.84,42.79,52.54,61.95-3.2,19-14.13,32.44-26.65,44.67L487,216.47l-5.13,5.68s-2.69,8-3.33,7.9,1.68-9.31,3.33-12.84l-4.1,5.92-3.31,7.51a.54.54,0,0,1-1-.31,48.78,48.78,0,0,1,5.41-14.63.14.14,0,0,0-.23-.16q-4.48,5.17-8.65,15.1a.39.39,0,0,1-.75-.19,46.09,46.09,0,0,1,5.46-15.07.45.45,0,0,0-.73-.52A37,37,0,0,0,466.52,227a.16.16,0,0,1-.3-.08c.68-3.1,1.91-8.67,2.26-10.28a3.66,3.66,0,0,1,.3-.86,183.24,183.24,0,0,1,13.38-22.54c8.7-16.66,22.24-34.51,37.68-52.82a381,381,0,0,1-33.58-32.33l3.33-28.88Z"/><path class="cls-2" d="M457.33,47.93,450,40a6.89,6.89,0,0,0-7.1-1.35c-5.24,2-10.51,3.32-15.87,2.45a3.33,3.33,0,0,1,.92-6.59c.47.06,1,.14,1.49.26l-.12-.06c-3.4-2-1.1-7.05,2.75-6.08l2.15.55.62-1.64A1.38,1.38,0,0,1,437,27a10.62,10.62,0,0,0,9.79,2.4c7.25-2.79,9.19,7.44,10.52,18.48Z"/><path class="cls-7" d="M482.65,185.27l-4.52-12.84a17.83,17.83,0,0,1-.78-8.85l9.51-57.35,2.73-27a154.29,154.29,0,0,0-16.87-7.7L468.78,77a18.4,18.4,0,0,1-29.36.25l-1.71-2.28c-3.23,2-6.43,4.49-9.63,6.93l4.1,41.46L441.35,170a12.37,12.37,0,0,1,.1,4.14l-2,13.72c10.8,5.25,26.22,2.7,43.25-2.57Z"/><path class="cls-7" d="M523.54,107.79a369.18,369.18,0,0,0-34-28.54l-3.33,28.88c5.27,5.67,15.74,15.8,20.89,20.82,6.72-5.08,12.17-12.16,16.39-21.15Z"/><path class="cls-8" d="M428.08,81.88c-7,4.7-14.68,15.52-22.72,29.74a35.75,35.75,0,0,1-2.31,3.56,65,65,0,0,0,16.14,20.21c4.42-4.86,8.38-10.6,13-18.29l-4.1-35.21Z"/><path class="cls-3" d="M468.05,437.43c-2.95,6.5-14.18,12.48-21.75,17.88a1.05,1.05,0,0,0,.78,1.9l34.54-4.75a5.78,5.78,0,0,0,5-5.12L487.5,437c-6.91,1.31-13.46,1.64-19.45.43Z"/><path class="cls-2" d="M470.09,444.42a.92.92,0,0,1-.56-.2c-2-1.62-4-1.66-6.38-.13a.9.9,0,1,1-1-1.5c3-2,5.85-1.88,8.49.23a.89.89,0,0,1-.56,1.59Z"/><path class="cls-2" d="M466.25,448.11a.89.89,0,0,1-.56-.2c-2-1.62-4.06-1.66-6.38-.13a.9.9,0,1,1-1-1.5c3-2,5.85-1.88,8.49.23a.89.89,0,0,1-.56,1.59Z"/><path class="cls-2" d="M452.34,458q-3.14,0-6-.25a.9.9,0,0,1-.81-1,.89.89,0,0,1,1-.81c9.19.82,24.45-2.37,39.62-5.75a.9.9,0,1,1,.39,1.75c-12.28,2.73-25.84,6-34.21,6Z"/><path class="cls-2" d="M475.9,453.55a.93.93,0,0,1-.47-.13.89.89,0,0,1-.29-1.23c4.48-7.32,9-11.79,12.49-12.28a.9.9,0,1,1,.25,1.77c-2.83.4-7.13,4.78-11.22,11.44a.9.9,0,0,1-.76.43Z"/><path class="cls-9" d="M86.48,67.5a2.69,2.69,0,1,1-2.69-2.69,2.68,2.68,0,0,1,2.69,2.69Z"/><path class="cls-9" d="M100.35,67.5a2.69,2.69,0,1,1-2.69-2.69,2.68,2.68,0,0,1,2.69,2.69Z"/><path class="cls-9" d="M114.23,67.5a2.69,2.69,0,1,1-2.69-2.69,2.68,2.68,0,0,1,2.69,2.69Z"/><polygon class="cls-9" points="172.87 148.07 80.21 148.07 80.21 90.33 172.87 90.33 172.87 148.07 172.87 148.07"/><path class="cls-3" d="M107.52,106a9,9,0,1,1-9-9,8.95,8.95,0,0,1,9,9Z"/><polygon class="cls-5" points="164.03 139.57 89.06 139.57 89.06 120.77 164.03 120.77 164.03 139.57 164.03 139.57"/><path class="cls-1" d="M162.12,100.9H115.24a.45.45,0,1,1,0-.9h46.88a.45.45,0,1,1,0,.9Z"/><path class="cls-1" d="M162.12,107.61H115.24a.45.45,0,1,1,0-.9h46.88a.45.45,0,1,1,0,.9Z"/><path class="cls-1" d="M162.12,114.33H115.24a.45.45,0,1,1,0-.9h46.88a.45.45,0,1,1,0,.9Z"/><polygon class="cls-7" points="176 225.06 34.11 225.06 34.11 194.62 176 194.62 176 225.06 176 225.06"/><polygon class="cls-1" points="58.06 217.45 42.84 217.45 42.84 202.23 58.06 202.23 58.06 217.45 58.06 217.45"/><path class="cls-6" d="M158.09,202.65H63.77a.45.45,0,0,1,0-.9h94.33a.45.45,0,1,1,0,.9Z"/><path class="cls-1" d="M158.09,209.81H63.77a.45.45,0,0,1,0-.9h94.33a.45.45,0,1,1,0,.9Z"/><path class="cls-1" d="M141.53,217H63.77a.45.45,0,0,1,0-.9h77.76a.45.45,0,0,1,0,.9Z"/></svg>