<svg id="Layer_2" data-name="Layer 2" xmlns="http://www.w3.org/2000/svg" viewBox="0 0 458.05 573.04"><defs><style>.cls-1{fill:#5c61e1;}.cls-2{fill:#d1d2e1;}.cls-3{fill:#534bbd;}.cls-4{fill:#fff;}.cls-5{fill:#b7baed;}.cls-6{fill:#f55656;}.cls-7{fill:#d84444;}</style></defs><title>Illustration_1</title><path class="cls-1" d="M11.33,551.82H447c0,.66-.07,1.31-.1,2H11.09Q11.22,552.8,11.33,551.82Z"/><polygon class="cls-2" points="98.31 195.91 234.53 195.91 234.53 76.41 98.31 76.41 98.31 195.91 98.31 195.91"/><polygon class="cls-3" points="98.31 88.21 234.53 88.21 234.53 76.41 98.31 76.41 98.31 88.21 98.31 88.21"/><polygon class="cls-4" points="182.4 184.35 220.51 184.35 220.51 96.57 182.4 96.57 182.4 184.35 182.4 184.35"/><polygon class="cls-2" points="17.17 128.29 74.21 128.29 74.21 44.44 17.17 44.44 17.17 128.29 17.17 128.29"/><polygon class="cls-5" points="25.19 69.52 66.19 69.52 66.19 53.78 25.19 53.78 25.19 69.52 25.19 69.52"/><polygon class="cls-5" points="25.19 114.76 66.19 114.76 66.19 110.58 25.19 110.58 25.19 114.76 25.19 114.76"/><polygon class="cls-5" points="25.19 118.7 66.19 118.7 66.19 116.98 25.19 116.98 25.19 118.7 25.19 118.7"/><path class="cls-1" d="M228.93,284.65c5.61,13.24,8.42,26.36,7,39.3a110.86,110.86,0,0,0-.1,22.42,290.93,290.93,0,0,0,8,45c2.86,11.17,5.1,22.48,6.83,33.88l3.88,17a246.29,246.29,0,0,1,6.08,49.37l-.7,59c.06,1.43,1.18,2.71-.13,3.25-10.18,4.17-23.17,3.44-37.1,1.07a.45.45,0,0,1-.21-.79l17-10.66a5.37,5.37,0,0,0,1.94-4.56c-2.34-28.52-7.51-60.74-14-90.73a163.72,163.72,0,0,0-8-26c-2.66-6.69-5.06-14.95-7.56-28.09l-11.4-61.16,10.64-19,17.86-29.25Z"/><path class="cls-4" d="M28.81,92H62.57A3.44,3.44,0,0,0,66,88.54h0a3.44,3.44,0,0,0-3.44-3.44H28.81a3.44,3.44,0,0,0-3.44,3.44h0A3.44,3.44,0,0,0,28.81,92Z"/><path class="cls-1" d="M30.61,88.86h25.9a.49.49,0,1,0,0-1H30.61a.49.49,0,1,0,0,1Z"/><path class="cls-6" d="M59,88.54A2.13,2.13,0,1,0,61.1,86.4,2.13,2.13,0,0,0,59,88.54Z"/><path class="cls-1" d="M30.61,77.8h25.9a.49.49,0,1,0,0-1H30.61a.49.49,0,1,0,0,1Z"/><path class="cls-1" d="M109.13,98.94h65.41a.49.49,0,1,0,0-1H109.13a.49.49,0,0,0,0,1Z"/><path class="cls-1" d="M109.13,111.73h65.41a.49.49,0,1,0,0-1H109.13a.49.49,0,0,0,0,1Z"/><path class="cls-1" d="M119.95,124.52h54.59a.49.49,0,1,0,0-1H119.95a.49.49,0,0,0,0,1Z"/><path class="cls-1" d="M119.95,137.3h54.59a.49.49,0,1,0,0-1H119.95a.49.49,0,1,0,0,1Z"/><path class="cls-1" d="M119.95,150.09h54.59a.49.49,0,1,0,0-1H119.95a.49.49,0,1,0,0,1Z"/><path class="cls-1" d="M30.61,105.34h25.9a.49.49,0,1,0,0-1H30.61a.49.49,0,1,0,0,1Z"/><path class="cls-4" d="M59,77.47a2.13,2.13,0,1,0,2.13-2.13A2.13,2.13,0,0,0,59,77.47Z"/><path class="cls-4" d="M225,82.31a2.13,2.13,0,1,0,2.13-2.13A2.13,2.13,0,0,0,225,82.31Z"/><path class="cls-4" d="M214.2,82.31a2.13,2.13,0,1,0,2.13-2.13,2.13,2.13,0,0,0-2.13,2.13Z"/><path class="cls-4" d="M203.38,82.31a2.13,2.13,0,1,0,2.13-2.13,2.13,2.13,0,0,0-2.13,2.13Z"/><path class="cls-1" d="M226,154.59c13.25,17.75,25.07,41.47,35.95,69.14,15.24,44.14,7,54.75-4.31,61a15.14,15.14,0,0,1-12.37,1.16c-18.15-6.31-32.23-26.37-43.56-55.7l-9.32-16.72-5.49-4.58c-.35-.3-.05-.93.36-.75a45.7,45.7,0,0,0,6.06,2.1c.24.06.4-.26.24-.47l-2.83-4.72a7,7,0,0,0-3.58-3L181.36,200c-.24-.08-.18-.48.07-.48l10,.33s4.33,7.22,5,6.46-6.66-9.12-6.66-9.12l-8.69-.8a.38.38,0,0,1,0-.74l10-1.12s7,8.36,7.66,8c.35-.2,0-2.3-.49-4.25a10,10,0,0,0-3.1-5.32l-3.92-3.41c-.15-.12,0-.39.15-.32l7.68,3,6.32,9.5L241.34,253,230,198.28l-4-43.69Z"/><path class="cls-1" d="M201.67,102.55c-3.55,7.1-2.35,18.8-1.27,30.38l5.32.38.38,18.62c-8.4,2-14.95,5.85-19.37,11.78l-3.42,44.07,1.08,60.06a11.86,11.86,0,0,1-2.39,6.78c-24.85,29.42-42,114.63-46.18,133l-5.91,23.64a41,41,0,0,1-1.33,4.3L90.92,537.28a8,8,0,0,1-3.83,4.32l-23.34,12a.57.57,0,0,0,.25,1.08l33.2.65a5.55,5.55,0,0,0,4.92-2.78l9.76-16.91,33.76-64.72a262.44,262.44,0,0,0,12.46-34.1l6-21.14c11.24-31.35,18.43-56,33.27-78.23.78-1.17,17.09-10.72,23-19.31,8.81-12.79,10.49-28.85,10.49-28.85L223,268.54a11.19,11.19,0,0,1-.86-6.3l2.54-65.11-4.94-42.55c-2.62-4.91-4.38-11.43-4.18-21.65l4.56-22.41A14.58,14.58,0,0,0,214.63,100a8.39,8.39,0,0,0-13,2.54Z"/><path class="cls-1" d="M186.72,163.71c-21.7,15.09-40,43.31-57,39.13-22.93-4.52-35.18-47.58-46.35-94.59v-3.67a8.58,8.58,0,0,0-1.64-5l-6.29-8.68a.37.37,0,0,0-.63.39l4.38,8.27v4.18S61.54,85,61.75,87.72c.19,2.5,10.21,11.85,9.85,14.07-.19,1.18-13.17-13.63-18.24-13.3-.93.06,14,12.67,14.44,16,.25,1.68-12.16-10.26-13.68-8.74s10.95,10.54,8.74,13.68c0,0-8-5.7-8-4.56s7.64,10.69,7.64,10.69a45.37,45.37,0,0,1,7.52,17.31c7.71,37.74,16.17,65.23,25.49,81,10.37,15.15,23,26.65,45.25,22.4a57.6,57.6,0,0,0,19.84-8c8.32-5.24,14.06-10.91,22.67-20.49l3.42-44.07Z"/><path class="cls-6" d="M182,274.61a11.86,11.86,0,0,0,2.39-6.78l-1.08-60.06,3.42-44.07a28.39,28.39,0,0,1,8.05-7.25c9.64,1.85,18.17,2.5,25.43,1.8l4.51,38.89-2.54,65.11a11.19,11.19,0,0,0,.86,6.3l7.85,20.75,0,.21c4.2,11.33,6.22,22.56,5.13,33.66A117.27,117.27,0,0,0,235.6,344a279.56,279.56,0,0,0,6.88,41.82c-13.35,16.93-92.63,10.88-99.17-11,8.08-33.13,21.54-79.95,38.68-100.23Z"/><path class="cls-6" d="M119,197.43a23.74,23.74,0,0,0,10.73,5.41c17,4.18,35.29-24,57-39.13l-3.42,44.07c-8.61,9.58-14.35,15.25-22.67,20.49a57.6,57.6,0,0,1-19.84,8c-11.81,2.25-20.9.08-28.38-4.73-.3-12.22,1.65-23.67,6.59-34.1Z"/><path class="cls-6" d="M63.75,553.59l19.47-10a73.83,73.83,0,0,0,22.26,3.14l-3.35,5.8a5.55,5.55,0,0,1-4.92,2.78L64,554.67a.57.57,0,0,1-.25-1.08Z"/><path class="cls-3" d="M85.48,556.87a102.41,102.41,0,0,0,15.44-1,1,1,0,1,0-.3-1.94c-8.81,1.37-21.91,1.28-37.87-.26a1,1,0,1,0-.19,2c8.61.83,16.27,1.24,22.92,1.24Z"/><polygon class="cls-2" points="144.04 54.28 279.77 54.28 279.77 11.98 144.04 11.98 144.04 54.28 144.04 54.28"/><polygon class="cls-5" points="243.38 45.42 270.92 45.42 270.92 20.84 243.38 20.84 243.38 45.42 243.38 45.42"/><polygon class="cls-4" points="154.86 22.31 235.02 22.31 235.02 21.33 154.86 21.33 154.86 22.31 154.86 22.31"/><polygon class="cls-4" points="166.66 33.13 235.02 33.13 235.02 32.15 166.66 32.15 166.66 33.13 166.66 33.13"/><polygon class="cls-4" points="183.38 43.95 235.02 43.95 235.02 42.97 183.38 42.97 183.38 43.95 183.38 43.95"/><path class="cls-7" d="M235.31,244.38l6,8.6L230,198.28l-4-43.69c13.25,17.75,25.07,41.47,35.95,69.14,15.24,44.14,7,54.75-4.31,61a15.14,15.14,0,0,1-12.37,1.16,40.53,40.53,0,0,1-6.36-2.86c-3.87-12.86-4-25.75-3.63-38.64Z"/><path class="cls-3" d="M209.77,95.31a22.47,22.47,0,0,1,11.78,8.18,26.5,26.5,0,0,1,4.74,10.86c1.41,7.3,3.69,13.33,8.72,15.32a43,43,0,0,1,7.44,3.66c14.14,9,19.5,17,21.06,24.54a27.53,27.53,0,0,0,6.7,13.18c27.36,29.53,14.44,49.78-6.22,68.25A53.1,53.1,0,0,1,217.43,252c-21.17-4.61-30-20.53-24.49-49.49a59.55,59.55,0,0,1,4.73-14.11A16.18,16.18,0,0,0,199,177l-.48-1.39a47.39,47.39,0,0,1,.72-33.5l.92-2.29A30.48,30.48,0,0,0,202,123.25c-2.74-15.9-2-26.54,4.68-28.11a5.85,5.85,0,0,1,3.1.17Z"/><path class="cls-1" d="M396.34,551.82l4.06-107.64H316.54l4.06,107.64ZM319,553.44l-4.18-110.88h87.23L397.9,553.44Z"/><path class="cls-1" d="M356.24,443.44l3.44-44.92a218,218,0,0,0-1.36-46.1,25.93,25.93,0,0,1,6.48-21.33,18.23,18.23,0,0,1,15-5.93c5.74.51,10.84,3.72,14.36,9a26.75,26.75,0,0,1,3,22.76L391,376.11l1.54.49,6.12-19.17a28.39,28.39,0,0,0-3.18-24.15c-3.8-5.73-9.33-9.18-15.57-9.74A19.81,19.81,0,0,0,363.64,330a27.56,27.56,0,0,0-6.91,22.67,216.39,216.39,0,0,1,1.35,45.76l-3.44,44.92,1.61.12Z"/><path class="cls-1" d="M362.39,443.78l7.3-12.28a196.58,196.58,0,0,0,11.56-22.71l-1.49-.64a195.53,195.53,0,0,1-11.46,22.52L361,443l1.39.83Z"/><path class="cls-1" d="M359.78,444.24c1.27-9.07,2.47-18.9,3.63-28.4,4.81-39.48,9.79-80.3,21.8-90.06l-1-1.26c-12.52,10.17-17.54,51.32-22.39,91.12-1.16,9.49-2.36,19.31-3.62,28.37l1.6.23Z"/><path class="cls-1" d="M336.14,444.42l1.51-.58-4.28-11a37.23,37.23,0,0,0-19.59-20.65l-5.23-2.35a27.52,27.52,0,1,1,29.86-45.38,36,36,0,0,1,11.62,26l.62,52.12,1.62,0-.62-52.12a37.6,37.6,0,0,0-12.15-27.17,29.13,29.13,0,1,0-31.62,48.05l5.23,2.35a35.62,35.62,0,0,1,18.74,19.76l4.28,11Z"/><path class="cls-1" d="M343.4,443.53l1.57-.41-10-37.84c-.65-2.44-1.23-5-1.79-7.38L333,397c-4.11-17.72-14.67-28.77-32.28-33.77l-.44,1.56c17,4.83,27.18,15.49,31.14,32.58l.21.9c.56,2.44,1.15,5,1.8,7.43l10,37.84Z"/><path class="cls-1" d="M383.6,444.71c12.08-12.08,19.35-21.34,18.41-48a33.44,33.44,0,0,0-4.65-16c-3.72-6.19-7.59-8.14-12.18-6.13A12,12,0,0,0,378.26,387a195.71,195.71,0,0,1,1.55,23.93h1.62a197.36,197.36,0,0,0-1.56-24.13,10.42,10.42,0,0,1,6-10.81c2.68-1.18,6-1.44,10.15,5.48a31.8,31.8,0,0,1,4.42,15.26c.93,26.54-6.21,35.07-17.94,46.81l1.14,1.14Z"/><path class="cls-1" d="M376.51,442.79c3.27-9.11,4.88-19.52,4.92-31.84h-1.62c0,12.13-1.62,22.37-4.83,31.29l1.52.55Z"/><path class="cls-1" d="M380.52,442.86a97.11,97.11,0,0,0,7.16-61.18l-1.39-6.58-1.58.34L386.1,382a95.48,95.48,0,0,1-7,60.15l1.46.69Z"/><path class="cls-6" d="M258.37,544l1.38-1.12.17,7.73c.06,1.43,1.18,2.71-.13,3.25-10.18,4.17-23.17,3.44-37.1,1.07a.45.45,0,0,1-.21-.79l18.34-11.59A22.43,22.43,0,0,0,258.37,544Z"/><path class="cls-3" d="M240.49,557.93a56,56,0,0,0,20-3.59,1,1,0,1,0-.68-1.84c-12.72,4.72-23.94,4-36.89,1.47a1,1,0,1,0-.38,1.93,93.27,93.27,0,0,0,18,2Z"/></svg>