<svg id="Layer_2" data-name="Layer 2" xmlns="http://www.w3.org/2000/svg" viewBox="0 0 601.6 529.27"><defs><style>.cls-1{fill:#5c61e1;}.cls-2{fill:#b8b9f1;}.cls-3{fill:#534bbd;}.cls-4{fill:#f2f2f2;}.cls-5{fill:#d1d2e1;}.cls-6{fill:#f55656;}.cls-7{fill:#d84444;}.cls-8{fill:#fff;}</style></defs><title>Illustration_2</title><path class="cls-1" d="M20.24,506.48l560.92-2.83c0,.75.12,1.51.19,2.27L20.54,508.75C20.46,508,20.35,507.24,20.24,506.48Z"/><path class="cls-1" d="M202.82,325.53c16.85,17,33.72,36.9,45.37,56.62.57,1,36,78.48,48.16,119.75a1.38,1.38,0,0,1-1.3,1.78H245.78a.84.84,0,0,1-.42-1.57l21.39-13c.79-.48.81-1.41.8-2.34-.43-38.24-108.18-160.09-111.75-152.32l47-9Z"/><path class="cls-2" d="M283.13,503.68H245.78a.84.84,0,0,1-.42-1.57l21.39-13,.2-.15c6.78,4.76,13,9.14,16.19,14.67Z"/><path class="cls-2" d="M291.5,485.91q2.49,8,4.85,16a1.38,1.38,0,0,1-1.3,1.78H282.61c.49-8.3,3.66-14,8.89-17.77Z"/><path class="cls-3" d="M274.14,505.27a209.33,209.33,0,0,0,22.5-1.08,1.15,1.15,0,0,0,1-1.27,1.13,1.13,0,0,0-1.25-1c-13.11,1.42-29.32,1.42-51,0a1.13,1.13,0,0,0-1.21,1.08,1.15,1.15,0,0,0,1.06,1.23c10.91.71,20.44,1.07,28.91,1.07Z"/><path class="cls-1" d="M235.85,319.27h88.63a1.7,1.7,0,0,0,0-3.4H235.85a1.7,1.7,0,0,0,0,3.4Z"/><path class="cls-1" d="M75.53,244.07h54.69a1.7,1.7,0,1,0,0-3.4H75.53a1.7,1.7,0,1,0,0,3.4Z"/><path class="cls-2" d="M70.69,177.33h169A11.34,11.34,0,0,0,251.08,166V51.25A11.34,11.34,0,0,0,239.74,39.9h-169A11.34,11.34,0,0,0,59.35,51.25V166a11.34,11.34,0,0,0,11.34,11.34Z"/><path class="cls-1" d="M70.69,180h169a11.34,11.34,0,0,0,11.34-11.34V156.75H59.35v11.91A11.34,11.34,0,0,0,70.69,180Z"/><polygon class="cls-4" points="67.39 156.75 243.04 156.75 243.04 48.13 67.39 48.13 67.39 156.75 67.39 156.75"/><polygon class="cls-5" points="181.43 130.89 194.62 130.89 194.62 74 181.43 74 181.43 130.89 181.43 130.89"/><polygon class="cls-5" points="198.79 130.89 211.98 130.89 211.98 74 198.79 74 198.79 130.89 198.79 130.89"/><polygon class="cls-1" points="133 206.56 177.43 206.56 173.32 177.76 137.11 177.76 133 206.56 133 206.56"/><path class="cls-3" d="M268.38,142.91c9.06,10.28,11.36,30.52,14.13,50.08,6.92,51.19.76,52.51-4.37,57.79-15.45,12.7-39.74,3.37-64.21-6.42l-37.75-15.41c-1.88-.43-3.71.85-5.53,2.17a.18.18,0,0,1-.23-.27c2-2,5.13-5.27,4.23-4.73s-5.2,3.32-8.11,5.2a.27.27,0,0,1-.33-.42c2.8-2.62,7-6.74,6.13-7.09s-5.83,3.57-9.73,6.71a.29.29,0,0,1-.39-.44l7.57-7.55a.35.35,0,0,0-.31-.58L163.34,223l-1.39,2.44a.2.2,0,0,1-.38-.15l1-4.61,9.25-2.83c25.5-2.37,51-4.13,76.28,7.7,15.17-2.48,19.07-24.7,21.32-49.82l-1-32.87Z"/><path class="cls-1" d="M268.16,142.84l1.25,32.94c-4.18,33.49-.56,57.81,5.65,79.1l6.16,22.6-19,14.38c-2.63,19.43-18.58,30.37-42.12,36.47l-66.77,8.73c19.66,23.41,39.08,46.81,47.26,69.85l36,67.81a94.26,94.26,0,0,1,9.54,27.53.61.61,0,0,1-.6.71H192.69a.67.67,0,0,1-.36-1.25L212.93,489a2,2,0,0,0,.72-2.54c-13.94-27.55-103.06-121.89-108-150.86a14.57,14.57,0,0,1,1.64-9.57c10.64-19,29.33-35.4,66.55-46,22.56-7.42,51-13.78,57-24.14,1.9-13.52-4.21-37.84-13.36-66.26l-6.68-50.85,9-3.95a10,10,0,0,0,5.79-11.18l-2.48-12.1-4.26.61a3.27,3.27,0,0,1-3.64-2.46l-4.76-19.42a16.77,16.77,0,0,1,1.72-12.52A8.44,8.44,0,0,1,222,73.64,12.1,12.1,0,0,1,231,84L234,107.47l4.79,18a10.29,10.29,0,0,0,6.29,7c6.32,2.4,17.18,6.76,23.11,10.44Z"/><path class="cls-1" d="M210.86,138.8c-15,13.76-26,43.89-34.93,82.7-24.14-7.87-47.2-5.84-69.86,0-4.6,1.78-10.61,6.95-13.46,10.71a.45.45,0,0,0,.57.67c2.87-1.59,6.61-4.79,7.75-4.7,0,0-6.29,5.86-5.24,12.49,0,.3.32.58.43.29,3.23-8.14,8.4-10.73,8.4-10.73A22.29,22.29,0,0,0,100.29,242l1,.35c4.08-8.64,7.91-10.6,7.91-10.6s-3.68,5.73-.68,11c.11.19.36.15.36-.07.32-10.89,11.51-6.64,18.3-4.22,21,5.81,43.06,12.35,53.71,10.23a23.06,23.06,0,0,1,3.47-.46c19.93-.91,30.43-35.54,38.87-77.56L210.86,138.8Z"/><path class="cls-6" d="M281.22,277.49c3.06,17.8,1.78,33.9-13.1,38.27-5.61,2-15,1.26-19.78.26,5.3-5.52,12.56-15.25,13.87-24.14l19-14.38Z"/><path class="cls-2" d="M155.21,163.9a4.12,4.12,0,1,0,4.12,4.12,4.12,4.12,0,0,0-4.12-4.12Zm0,9.37a5.25,5.25,0,1,1,5.25-5.25,5.26,5.26,0,0,1-5.25,5.25Z"/><path class="cls-3" d="M37,207.75H177.61a1.7,1.7,0,1,0,0-3.4H37a1.7,1.7,0,0,0,0,3.4Z"/><path class="cls-7" d="M264.25,207.21c2.72-8.73,2.16-21.53,3.2-33.19l.93-31.1c9.06,10.28,11.36,30.52,14.13,50.08.74,5.47,1.33,10.37,1.79,14.76-6,1.64-12.7,1.36-20-.55Z"/><path class="cls-6" d="M173.87,280.05c22.56-7.42,51-13.78,57-24.14,1.83-13.09-3.82-36.29-12.49-63.54a229.06,229.06,0,0,1-8.15,27.11q-16.4,1.74-32-7.55c7-28.14,14.1-50.76,24.07-64.91a29.86,29.86,0,0,1,13.44-10.52l4.16-1.65a10,10,0,0,0,5.79-11.18l0-.24,12.47-.53.67,2.52a10.29,10.29,0,0,0,6.28,7c6.32,2.4,17.18,6.76,23.12,10.44l.69,18.17a216.54,216.54,0,0,1-.54,25.52c-2.24,28.07,1.23,49.41,6.76,68.35l6.16,22.6-19,14.38c-2.63,19.43-18.58,30.37-42.12,36.47L163,335.81A99.63,99.63,0,0,1,133.37,298c10.28-7,23.44-13.08,40.51-17.94Z"/><path class="cls-1" d="M338,502.53l.3,0c.92-.16,1.54,1.22,1.38,1.43l-32.29-184c-.16-2.06-1-2.67-2-2.51s-1.54,1-1.38,4.24l32.29,182.9c.15-1.44.86-2,1.67-2Z"/><path class="cls-2" d="M232.44,503H192.69a.67.67,0,0,1-.36-1.25L212.93,489c.86-.53,13.91,6.65,19.51,14Z"/><path class="cls-2" d="M232.44,503H245.5a1.22,1.22,0,0,0,1.2-1.39,57.49,57.49,0,0,0-5-15.86c-6.45,4.75-10.12,9.8-9.23,17.25Z"/><path class="cls-3" d="M219.29,504.75c9.84,0,18.79-.41,27-1.23a1.13,1.13,0,1,0-.23-2.26c-15.05,1.5-32.6,1.61-53.63.34a1.15,1.15,0,0,0-1.2,1.06,1.13,1.13,0,0,0,1.06,1.2c9.7.59,18.67.88,27,.88Z"/><polygon class="cls-1" points="81.43 65.12 171.71 65.12 171.71 63.99 81.43 63.99 81.43 65.12 81.43 65.12"/><polygon class="cls-1" points="81.43 138.04 171.71 138.04 171.71 136.9 81.43 136.9 81.43 138.04 81.43 138.04"/><polygon class="cls-1" points="127.27 142.9 171.71 142.9 171.71 141.76 127.27 141.76 127.27 142.9 127.27 142.9"/><polygon class="cls-5" points="80.04 130.89 172.06 130.89 172.06 74 80.04 74 80.04 130.89 80.04 130.89"/><polygon class="cls-1" points="80.04 82.09 172.06 82.09 172.06 74 80.04 74 80.04 82.09 80.04 82.09"/><path class="cls-8" d="M166.67,79a1,1,0,1,0-1-1,1,1,0,0,0,1,1Z"/><path class="cls-8" d="M160.94,79a1,1,0,1,0-1-1,1,1,0,0,0,1,1Z"/><path class="cls-8" d="M155.21,79a1,1,0,1,0-1-1,1,1,0,0,0,1,1Z"/><path class="cls-3" d="M213.62,69.7a12.06,12.06,0,0,1,10.55.52c9.22,4.84,12.49,13.14,14.43,22.22a17.65,17.65,0,0,0,4.69,8.81q16,16,17.64,30.36H211.16a84.29,84.29,0,0,1-2.51-13.79,75.21,75.21,0,0,1,.21-16.92l.25-2a11.73,11.73,0,0,0-.24-4.22c-3.55-14.5-1.42-22.18,4.76-25Z"/><polygon class="cls-4" points="125.79 112.08 163.29 112.08 163.29 88.12 125.79 88.12 125.79 112.08 125.79 112.08"/><polygon class="cls-4" points="88.81 123.02 163.29 123.02 163.29 116.77 88.81 116.77 88.81 123.02 88.81 123.02"/><path class="cls-1" d="M517,441.65H370a62.59,62.59,0,0,0,62.51,61.42h21.94A62.59,62.59,0,0,0,517,441.65Zm-84.45,63.62a64.79,64.79,0,0,1-64.71-64.71v-1.1H519.18v1.1a64.79,64.79,0,0,1-64.71,64.71Z"/><path class="cls-1" d="M492.83,441.89c2.7-12,12.11-43.31,23.15-44.26,1.54-.13,2,.39,2.27.8,3,5-9.84,28.42-18.65,42l1.84,1.19c2.4-3.72,23.37-36.53,18.68-44.34-.58-1-1.8-2.08-4.34-1.85-14.88,1.28-24.69,44.14-25.11,46l2.15.48Z"/><path class="cls-1" d="M486.2,440.88c.72-2.07,17.53-50.86,7-62.46-2.2-2.42-5.35-3.14-9.36-2.16-25.83,6.36-21.85,62-21.67,64.34l2.19-.17c0-.56-4-56.13,20-62,3.21-.79,5.56-.3,7.21,1.5,9.69,10.64-7.24,59.77-7.4,60.26l2.06.72Z"/><path class="cls-1" d="M455.54,440.75c1.1-5.27,10.51-51.71,2.86-57.53-.86-.64-2.3-1.18-4.44-.09-13.66,7-9.54,54.9-9.37,56.93l2.19-.19c-1.21-13.45-2.07-49.51,8.18-54.79,1.35-.69,1.9-.27,2.1-.12,4.94,3.76.37,35.94-3.67,55.34l2.15.45Z"/><path class="cls-1" d="M400.79,439.86l2-.8c-.18-.44-17-44.44,5.16-62.37,3-2.44,5.73-3.09,8.28-2,14.7,6.3,19.5,64.26,19.55,64.84l2.19-.18c-.2-2.44-5-59.86-20.87-66.68-3.33-1.43-6.88-.66-10.53,2.3-23.38,18.93-6.55,63-5.81,64.87Z"/><path class="cls-1" d="M382.27,441.5l1.8-1.24c-7.25-10.55-12.91-22.09-15.3-28.85-.69-1.94.79-3.18,1.73-3.74,2.71-1.61,7.15-1.63,9.45.92,9.67,10.72,14.31,20.81,14.18,30.87l2.19,0c.14-10.63-4.68-21.22-14.74-32.36-3.13-3.46-8.76-3.39-12.21-1.33-2.56,1.52-3.55,3.89-2.69,6.36,2.45,6.9,8.2,18.65,15.58,29.37Z"/><path class="cls-1" d="M418.3,439.74l2.13-.57-.29-1a198.36,198.36,0,0,1-6.26-64.42l-2.19-.14A200.58,200.58,0,0,0,418,438.7l.27,1Z"/><path class="cls-1" d="M389.77,440.75l2.15-.39a57,57,0,0,0-21.22-35.76l-1.38,1.71a54.91,54.91,0,0,1,20.46,34.44Z"/><path class="cls-1" d="M476.4,439.48c.6-28.58,5.07-47.91,14.06-60.82l-1.8-1.25c-9.26,13.29-13.85,33-14.46,62l2.19,0Z"/></svg>