<svg id="Layer_2" data-name="Layer 2" xmlns="http://www.w3.org/2000/svg" viewBox="0 0 628.48 432.46"><defs><style>.cls-1{fill:#5c61e1;}.cls-2{fill:#d1d2e1;}.cls-3{fill:#413d91;}.cls-4{fill:#00aced;}.cls-5{fill:#b8b9f1;}.cls-6{fill:#534bbd;}.cls-7{fill:#e29506;}</style></defs><title>Illustration_3</title><path class="cls-1" d="M21.88,405.95c0,.47.09.95.12,1.42H606.31c.09-.47.19-.95.29-1.42Z"/><polygon class="cls-2" points="175.31 183.95 461.91 183.95 461.91 17.92 175.31 17.92 175.31 183.95 175.31 183.95"/><path class="cls-1" d="M411.39,165.34a.36.36,0,0,0,.35-.35V36.89a.36.36,0,0,0-.35-.35.35.35,0,0,0-.35.35V165a.35.35,0,0,0,.35.35Z"/><path class="cls-1" d="M354.42,165.34a.36.36,0,0,0,.35-.35V36.89a.36.36,0,0,0-.35-.35.35.35,0,0,0-.35.35V165a.35.35,0,0,0,.35.35Z"/><path class="cls-1" d="M297.45,165.34a.36.36,0,0,0,.35-.35V36.89a.36.36,0,0,0-.35-.35.35.35,0,0,0-.35.35V165a.35.35,0,0,0,.35.35Z"/><path class="cls-1" d="M240.47,165.34a.35.35,0,0,0,.35-.35V36.89a.35.35,0,0,0-.35-.35.36.36,0,0,0-.35.35V165a.36.36,0,0,0,.35.35Z"/><path class="cls-1" d="M437.28,76H194.42q0,.35,0,.71H437.28a.35.35,0,0,0,0-.71Z"/><path class="cls-1" d="M437.28,124.18H193.2c0,.24,0,.47,0,.71H437.28a.35.35,0,0,0,0-.71Z"/><path class="cls-3" d="M393.5,50.67a.71.71,0,0,0-1-.15l-95.1,70.32c-18.94,13.87-45.4,19-69.06,13.44a84.7,84.7,0,0,0-16.81-2.17c0,.47-.05.94-.08,1.41A83.34,83.34,0,0,1,228,135.66c24.05,5.67,51,.43,70.23-13.68l95.1-70.32A.71.71,0,0,0,393.5,50.67Z"/><path class="cls-3" d="M483,44.65c-.26,6.47,1.71,14.15,5.28,22.7h4.22l4.37,10.57a3.35,3.35,0,0,1-1,3.84L479.36,96.21l19.52,74.74-3.69,33.58,16.88,20.34,5.19,58.68q.08.92.23,1.83l2.84,17.83a98.93,98.93,0,0,1,1.23,15.57v74.95A7.16,7.16,0,0,1,517.8,400L498.5,410.44a.41.41,0,0,0,.25.77c13.92-.2,26.86-1.48,38.09-4.68a4.3,4.3,0,0,0,3.26-3.94l2-87.39c.81-11.51.7-22.78-1.91-33.41a75.44,75.44,0,0,1-2.07-24.05,319.82,319.82,0,0,0,.73-48.24,102,102,0,0,0-2.8-17.47l-5-20.15L533.17,109l2.11-18.92-24-10.34a5.35,5.35,0,0,1-2.67-2.42L497.29,55.53c-4.56-16.46-9.38-15.06-14.24-10.88Z"/><path class="cls-3" d="M495.18,204.53c-4,18.7-7.11,45.65-10,74.87a11.56,11.56,0,0,1-.18,1.2c-2.19,10.63-2.28,21.84-3,29.42-.68,22.7-14.5,82-15,82.3l-20,12.94a.36.36,0,0,0,.28.66l30.74-2.56a2.55,2.55,0,0,0,2.28-1.72L486.48,381c7.16-23,12.66-46.75,15.3-71.66l2.31-25.5a13.83,13.83,0,0,1,.22-1.48l8.82-43.73-.07-14.29a4,4,0,0,0-.91-2.24l-17-17.53Z"/><path class="cls-3" d="M488.32,127.43c-7.66,30.33-23.81,45.36-37.22,45.53-28.38.35-81.18-59.66-81.18-59.66a27.24,27.24,0,0,0-6.2-3.43s-5.94-1.3-6.2-1.3l9.89-.12c3.43-1.06-12.14-3.67-11.6-3.9s12.42.47,12.42.47a.15.15,0,0,0,0-.3c-2.11-2.37-7-3-12.35-3.34a.24.24,0,0,1,0-.48c5.67-.68,10.75-.78,14,1a.33.33,0,0,0,.2-.61l-1.84-1.57A4.78,4.78,0,0,0,366,98.64l-6-1a.24.24,0,0,1,0-.47l6.52-.13a9.12,9.12,0,0,1,4.68,1.17l5.46,3.1a.14.14,0,0,0,.22-.14l-.82-3a2.9,2.9,0,0,0-.47-1s-2.31-2.52-2.31-3.11,4.6,3.44,4.6,3.44a16.44,16.44,0,0,1,3,2.93l4,5h0c5.44,5.21,2.48,2.94,8.57,7.36C408.66,124,430,143.74,444,147.77c15.26,4.38,20.65-15.89,25.32-33.82,2.36-7.6,5.59-13.69,10-17.74l9,31.22Z"/><path class="cls-4" d="M483.11,45.06c-.24,5.84,4.4,7.38,9.76,8.28l1,5.83a3.59,3.59,0,0,1-3.46,4l-3.84.35-3.59,7.19a20.44,20.44,0,0,0-1.82,5.18c-.87,4.46.72,5.58,4.88,3.24,3.06.28,5.51-.52,6.33-4.26,3.26.77,4.83-1.17,5.54-4.49v-13L495,47.9c-3.29-8.67-7.4-7.89-11.87-2.84Z"/><path class="cls-5" d="M479.36,96.21l10.72-9.34.59.81a11.12,11.12,0,0,0,18.42-.73l4-6.43,22.2,9.55L533.17,109l-2.11,62.91,5,20.15.05.22c-11.83,7.06-25,8.41-39.9,2.56l2.63-23.88L479.36,96.21Z"/><path class="cls-1" d="M535.28,90.06c21.23,11.49,34.4,27.39,43.69,45.43a40.27,40.27,0,0,1,4.31,13.27c2.46,19.26-11.49,30-27.16,39.93-10.51,6.21-19,16.61-26.94,28.22a22.57,22.57,0,0,0-2.46,4.67l-2.1,5.5c0,.06-.13,0-.13,0l.48-8.42a.17.17,0,0,0-.3-.11c-1.54,1.45-3.28,4.85-5.09,9-.06.14-.3.07-.25-.07l3.08-10.14c.07-.21-.22-.37-.41-.22-2.33,1.91-4.28,5.77-5.91,11.36,0,.11-.22.08-.21,0,.61-5.48,1.44-10.24,2.76-13.5.09-.23-.2-.43-.41-.28-1.24.89-2.85,3.12-4.54,5.6-.1.11-.3,0-.24-.12l4.87-11.38a52.06,52.06,0,0,1,5.54-9.83c10.92-15.25,21.87-29.36,32.92-40.2a4.63,4.63,0,0,0,1.19-5c-3.12-8.31-14.67-21.19-25.34-33.58l2.64-30Z"/><path class="cls-5" d="M548.35,138.68c-4.65-5.88-10.3-12.3-15.71-18.59-2.32-10.13-.94-20.13,2.64-30a100.26,100.26,0,0,1,35,31,57.93,57.93,0,0,1-21.9,17.67Z"/><path class="cls-5" d="M469.33,113.95c2.36-7.6,5.59-13.69,10-17.74l9,31.22a105.76,105.76,0,0,1-9.44,25.17,83.2,83.2,0,0,1-20.19-10.7c5.1-6.68,7.87-17.32,10.64-28Z"/><path class="cls-1" d="M540.09,402.6a4.3,4.3,0,0,1-3.26,3.94c-11.23,3.2-24.17,4.48-38.09,4.68a.41.41,0,0,1-.25-.77L517.8,400a7.15,7.15,0,0,0,3.74-6l18.81-2.51-.26,11.12Z"/><path class="cls-1" d="M447.06,405.25l20-12.94a16.86,16.86,0,0,0,.61-2.14l15.9.67-3.2,10.78a2.55,2.55,0,0,1-2.28,1.72l-30.74,2.56a.36.36,0,0,1-.28-.66Z"/><path class="cls-3" d="M523.36,400.83a.71.71,0,0,0,.52-.22.72.72,0,0,0,0-1c-2.67-2.49-5.28-2.82-8-1a.71.71,0,1,0,.79,1.18c1.43-1,3.43-1.72,6.22.87a.71.71,0,0,0,.48.19Z"/><path class="cls-3" d="M520.28,403.91a.71.71,0,0,0,.48-1.23c-2.67-2.5-5.28-2.83-8-1a.71.71,0,1,0,.79,1.18c1.43-1,3.43-1.72,6.22.88a.71.71,0,0,0,.48.19Z"/><path class="cls-6" d="M467.78,396.81a.71.71,0,0,0,.48-1.23c-2.67-2.5-5.28-2.83-8-1a.71.71,0,1,0,.79,1.18c1.43-1,3.43-1.72,6.22.88a.71.71,0,0,0,.48.19Z"/><path class="cls-6" d="M464.7,399.89a.71.71,0,0,0,.48-1.23c-2.67-2.49-5.28-2.82-8-1a.71.71,0,0,0,.79,1.18c1.43-1,3.43-1.73,6.22.87a.71.71,0,0,0,.48.19Z"/><path class="cls-3" d="M498.75,411.93h0c12.94-.18,29.37-1,41.66-5.95a.71.71,0,1,0-.53-1.31c-12.07,4.84-28.33,5.67-41.15,5.84a.71.71,0,0,0,0,1.42Z"/><path class="cls-6" d="M446,407h0c13.79-.17,24-2,34.9-4.27a.71.71,0,1,0-.28-1.39c-10.86,2.22-21,4.07-34.63,4.24a.71.71,0,0,0,0,1.42Z"/><path class="cls-3" d="M388.31,63.57a.71.71,0,0,0,.63-.41L395,49.91l-16.49,3.91a.71.71,0,0,0,.33,1.38L392.51,52l-4.86,10.6a.71.71,0,0,0,.35.94.69.69,0,0,0,.31.06Z"/><path class="cls-1" d="M155.26,94.32c9.42,9.49,17.92,21,25.73,34.06,7.93,11.83,17.36,14.74,28,13.63a42.9,42.9,0,0,0,16.59-5.44l32.64-18.47,15.08-6.27a0,0,0,0,1,0,.05l-8.32,5.5c2.75-1.84,8.85-3,14.73-3.92a.28.28,0,0,1,.13.54c-4.14,1.22-8.66,2.64-10.87,4.58a.61.61,0,0,0,.53,1,55.51,55.51,0,0,1,10.87-.78.38.38,0,0,1,.07.75c-4.29.78-9.71,2.06-12.64,3.55a.34.34,0,0,0,.24.63c2.7-.72,6.07-1.23,8.27-.65a.32.32,0,0,1-.07.63c-3,.27-5.87,1.83-8.76,4.27-19.75,15.82-38.8,27.19-56.88,32.17a32.68,32.68,0,0,1-25.11-3c-12.67-7.37-23.62-22.18-34.16-38.72l3.93-24.12Z"/><path class="cls-3" d="M155.26,94.32c9.42,9.49,17.92,21,25.73,34.06.5.74,1,1.44,1.5,2.12-2.16,5.47-6.26,10.13-11.88,14.17-6.75-7.37-13.09-16.49-19.29-26.22l3.93-24.12Z"/><path class="cls-5" d="M159.26,57.3c-.09,8-1.72,12.52-3,19.28a.84.84,0,0,1-1.08.64l-2.28-.76L150,87.1l7.1,9.58-3.9,24.12-2.37,41a13.37,13.37,0,0,0,.33,3.83l6.3,26.85-15.25,11.35L133,283.29a149.32,149.32,0,0,1-4.46,20.15,136.53,136.53,0,0,0-5.37,25.86c-2.92,28-5.68,54.13-3.65,65,1.7,10.22,9.36,14.35,14.62,18.45a.39.39,0,0,1-.33.69c-8.75-2-18.87-4.9-25.1-7.92a4.94,4.94,0,0,1-2.77-4.87l.8-9.9-2-42.56a166.26,166.26,0,0,1,2.5-37.34l1.23-6.73a155.19,155.19,0,0,0,2.5-27.78l-1.88-46a106.75,106.75,0,0,1,6.93-43,75,75,0,0,1,13-22.41,8.55,8.55,0,0,0,2.14-5.68l-.33-44.22L129.46,94.2,144,86.39c2.74-3,4.56-13.71,6.39-24.48,1.65-7.57,5.32-9.34,8.87-4.61Z"/><path class="cls-5" d="M157.48,192.47c2.39,30.23,3.59,58.46,1.77,85.85l.71,29.8,8,81.66a13.6,13.6,0,0,0,4.9,9.19l14,11.44a.88.88,0,0,1-.81,1.5l-24.66-6.23a2.18,2.18,0,0,1-1.6-1.75l-1.54-9.25-13-56.5a109.79,109.79,0,0,1-2.9-27.3c0-.64,0-1.28.06-1.93a166.38,166.38,0,0,0-1.53-30,242.3,242.3,0,0,1-2.1-44.63l3.55-30.51,15.25-11.35Z"/><path class="cls-6" d="M265,113.11l-1.53,1.35a3.24,3.24,0,0,0-1,1.69c-.48,2.07-.62,3.8-1.68,4.65l-5,.18,5.32-6.39,3.69-1.82a.2.2,0,0,1,.19.34Z"/><path class="cls-6" d="M130.87,115.13,115.8,156.56a15.28,15.28,0,0,0-.63,2.24c-4.41,22.21-18.82,70.68-18.82,70.68l-.84,8.67a.28.28,0,0,1-.55,0c-.06-3-.37-6.07-1.57-7.33-2.1.85-3.56,3.34-4.78,6.45a2.63,2.63,0,0,0-.43.9l-1.42,5a.18.18,0,0,1-.35-.05,34.87,34.87,0,0,1,1.65-11,.14.14,0,0,0-.22-.15c-2.63,2.41-4.46,6.38-5,12.63a.26.26,0,0,1-.51,0c-.23-5.34.55-10.76,2.45-13.82a.11.11,0,0,0-.16-.15c-2.11,1.54-3.91,5.57-5.22,9.63a.17.17,0,0,1-.33-.07,30.19,30.19,0,0,1,2.91-10.87.13.13,0,0,0-.21-.14l-3.58,3.59a0,0,0,0,1-.06,0l7-14.72c5.31-10.91,10-25,12.95-48.82.24-2,.56-3.9,1-5.83,7.1-35,17-59.12,30.44-69.16l1.42,20.93Z"/><path class="cls-4" d="M157.43,62.95c-2.11,5.18-5.46,8.31-11.06,7.71-5.17,9.55-12.14,13.24-21.29,9.93-6.32,9.17-29.09,40.68-55.34,30.27C53.81,126.27,42.06,108,41.28,89.23a31,31,0,0,1,3.43-15.1c4.81-9.59,13-14.3,27.86-9.61,1.24-16.26,10.71-23,37.37-9.93,7.4-8.71,14.62-4.61,21.75,4.73,6.06-4,25.62-10.7,27.47-3.45.61,2.37-.82,4.83-1.75,7.09Z"/><path class="cls-3" d="M129.46,94.2,132,115.93l-13.72,33.88a71.85,71.85,0,0,1-15.31-3.54c6.68-25.78,15.37-43.76,26.52-52.07Z"/><path class="cls-1" d="M98.06,169.19c.23-2,.56-3.9,1-5.82q1.84-9,3.93-17.1a71.85,71.85,0,0,0,15.31,3.54l-2.45,6.75a15.29,15.29,0,0,0-.63,2.24c-4.41,22.21-18.82,70.68-18.82,70.68l-.84,8.67a.28.28,0,0,1-.55,0c-.06-3-.37-6.07-1.57-7.33-2.1.85-3.56,3.34-4.78,6.45a2.63,2.63,0,0,0-.43.9l-1.42,5a.18.18,0,0,1-.35-.05,34.87,34.87,0,0,1,1.65-11,.14.14,0,0,0-.22-.15c-2.63,2.41-4.46,6.38-5,12.63a.26.26,0,0,1-.51,0c-.23-5.34.55-10.76,2.45-13.82a.11.11,0,0,0-.16-.15c-2.11,1.54-3.91,5.57-5.22,9.63a.17.17,0,0,1-.33-.07,30.19,30.19,0,0,1,2.91-10.87.13.13,0,0,0-.21-.14l-3.58,3.59a0,0,0,0,1-.06,0l7-14.72c5.31-10.91,10-25,12.95-48.82Z"/><path class="cls-7" d="M110.3,407.81c0-.51-.09-1-.15-1.59l.78.33c-.22.4-.43.82-.63,1.26Z"/><path class="cls-4" d="M108.72,405.56a4.94,4.94,0,0,1-2.77-4.87l.53-6.53a39,39,0,0,1,3.68,12.08c-.5-.22-1-.44-1.43-.67Z"/><path class="cls-4" d="M121.06,399.49c3,6.61,8.81,10,13.08,13.3a.39.39,0,0,1-.33.69,143.65,143.65,0,0,1-22.88-6.92,13.2,13.2,0,0,1,10.13-7.07Z"/><path class="cls-6" d="M133.81,414.54a1.06,1.06,0,0,0,.19-2.11c-12.44-2.31-23.89-4.84-27.42-10.51a1.07,1.07,0,0,0-1.81,1.13c4,6.41,15.43,9,28.84,11.47Z"/><path class="cls-4" d="M164.58,407.92c-.06-.5-.11-1-.18-1.47l.34.09c-.06.45-.12.91-.16,1.38Z"/><path class="cls-4" d="M170.83,396.91a14.1,14.1,0,0,0,2,2.06l14,11.44a.88.88,0,0,1-.81,1.5l-21.26-5.37c.71-4.78,3-7.73,6.09-9.63Z"/><path class="cls-4" d="M164.39,406.46l-3.07-.77a2.18,2.18,0,0,1-1.6-1.75l-1.38-8.27c3.56,1.48,5.29,5.46,6,10.79Z"/><path class="cls-6" d="M186.71,413a1.06,1.06,0,0,0,.26-2.09c-3.92-1-8.06-1.77-12.06-2.51-5-.93-10.21-1.89-15.23-3.36a1.07,1.07,0,1,0-.6,2,158,158,0,0,0,15.45,3.41c4.15.77,8.07,1.49,11.92,2.48a.88.88,0,0,0,.27,0Z"/><path class="cls-3" d="M116.06,187.43c3.34-8.62,6.93-16.32,12.35-22.54a8.59,8.59,0,0,0,2.14-5.68l.32-44.09L129.46,94.2,144,86.39a14.63,14.63,0,0,0,2.46-5.27l4.64,1.95-1.07,4,7.1,9.58h0a28,28,0,0,0,2.26,16.49,7.48,7.48,0,0,1,.73,3.23,7.56,7.56,0,0,1-7.08,7.54l-2.19,37.84c-.08,1.29,2.35,9.18,2.64,10.43l2.09,9.68a158.18,158.18,0,0,1,3.28,23.51c1.13,18.27,1.49,35.6,1.2,52.88-6,10.23-40.87,7.08-49.78.49l-1.16-28.36a106.75,106.75,0,0,1,6.93-43Z"/></svg>