<svg id="Layer_2" data-name="Layer 2" xmlns="http://www.w3.org/2000/svg" viewBox="0 0 250.75 60.57"><defs><style>.cls-1{fill:#212635;}.cls-2{fill:#ff5a5a;}</style></defs><title>Logo_color</title><path class="cls-1" d="M80.33,25.75a5.47,5.47,0,0,1,1.23,3.81v6.92h-3V29.9a3.11,3.11,0,0,0-.73-2.2,2.6,2.6,0,0,0-2-.78,2.67,2.67,0,0,0-2.06.84A3.42,3.42,0,0,0,73,30.16v6.32h-3V24.57h3V27a3.79,3.79,0,0,1,1.56-1.88A4.63,4.63,0,0,1,77,24.4,4.22,4.22,0,0,1,80.33,25.75Z"/><path class="cls-1" d="M94.23,25.15a5.35,5.35,0,0,1,2.18,2.12,6.44,6.44,0,0,1,.8,3.26,6.38,6.38,0,0,1-.8,3.25,5.44,5.44,0,0,1-2.18,2.12,7,7,0,0,1-6.26,0,5.44,5.44,0,0,1-2.18-2.12,6.37,6.37,0,0,1-.8-3.25,6.43,6.43,0,0,1,.8-3.26A5.35,5.35,0,0,1,88,25.15a7.06,7.06,0,0,1,6.26,0ZM89,27.94a3.53,3.53,0,0,0-.88,2.59A3.53,3.53,0,0,0,89,33.12a3,3,0,0,0,4.3,0,3.53,3.53,0,0,0,.88-2.59,3.54,3.54,0,0,0-.88-2.59,3,3,0,0,0-4.3,0Z"/><path class="cls-1" d="M109.34,25.15a5.35,5.35,0,0,1,2.18,2.12,6.44,6.44,0,0,1,.8,3.26,6.38,6.38,0,0,1-.8,3.25,5.44,5.44,0,0,1-2.18,2.12,7,7,0,0,1-6.26,0,5.44,5.44,0,0,1-2.18-2.12,6.37,6.37,0,0,1-.8-3.25,6.43,6.43,0,0,1,.8-3.26,5.35,5.35,0,0,1,2.18-2.12,7.06,7.06,0,0,1,6.26,0Zm-5.28,2.78a3.53,3.53,0,0,0-.88,2.59,3.53,3.53,0,0,0,.88,2.59,3,3,0,0,0,4.3,0,3.53,3.53,0,0,0,.88-2.59,3.54,3.54,0,0,0-.88-2.59,3,3,0,0,0-4.3,0Z"/><path class="cls-1" d="M123.11,25.13A4,4,0,0,1,124.65,27V20.57h3V36.48h-3V34a4.06,4.06,0,0,1-1.54,1.92,4.47,4.47,0,0,1-2.57.72,5.11,5.11,0,0,1-2.71-.73A4.94,4.94,0,0,1,116,33.78a7.35,7.35,0,0,1-.68-3.26,7.35,7.35,0,0,1,.68-3.26,4.94,4.94,0,0,1,1.88-2.12,5.12,5.12,0,0,1,2.71-.73A4.53,4.53,0,0,1,123.11,25.13ZM119.21,28a3.58,3.58,0,0,0-.86,2.54,3.54,3.54,0,0,0,.86,2.53,3.26,3.26,0,0,0,4.55,0,3.48,3.48,0,0,0,.89-2.5,3.51,3.51,0,0,0-.89-2.53,3,3,0,0,0-2.27-.94A3,3,0,0,0,119.21,28Z"/><path class="cls-1" d="M134.87,20.57V36.48h-3V20.57Z"/><path class="cls-1" d="M150.16,31.11h-8.73a3.28,3.28,0,0,0,.86,2.34,2.77,2.77,0,0,0,2,.75,2.87,2.87,0,0,0,1.75-.52,2.29,2.29,0,0,0,.89-1.4h3.2a5.12,5.12,0,0,1-1,2.24,5.28,5.28,0,0,1-2,1.55,6.81,6.81,0,0,1-5.79-.18,5.21,5.21,0,0,1-2.11-2.12,6.66,6.66,0,0,1-.75-3.25,6.72,6.72,0,0,1,.75-3.26,5.13,5.13,0,0,1,2.11-2.12,6.42,6.42,0,0,1,3.1-.73,6.28,6.28,0,0,1,3.09.73,5.16,5.16,0,0,1,2,2,5.84,5.84,0,0,1,.72,2.91A5.77,5.77,0,0,1,150.16,31.11Zm-3.71-3.55a2.91,2.91,0,0,0-2-.75,3,3,0,0,0-2.06.75,3.08,3.08,0,0,0-.92,2.21h5.78A2.67,2.67,0,0,0,146.45,27.56Z"/><path class="cls-1" d="M161.27,25.52a4.75,4.75,0,0,1,1.63,2.92h-2.84a2.36,2.36,0,0,0-.77-1.38,2.33,2.33,0,0,0-1.57-.52,1.8,1.8,0,0,0-1.2.37,1.23,1.23,0,0,0-.43,1,1,1,0,0,0,.34.8,2.47,2.47,0,0,0,.86.47q.52.17,1.48.41a15.34,15.34,0,0,1,2.2.63,3.65,3.65,0,0,1,1.46,1.05,2.9,2.9,0,0,1,.61,1.95,3,3,0,0,1-1.19,2.47,5,5,0,0,1-3.21.95,6.07,6.07,0,0,1-3.72-1,4.38,4.38,0,0,1-1.7-3h2.9a2,2,0,0,0,.77,1.39,2.81,2.81,0,0,0,1.74.51,1.68,1.68,0,0,0,1.18-.38,1.27,1.27,0,0,0,.41-1,1.08,1.08,0,0,0-.35-.84,2.4,2.4,0,0,0-.88-.49q-.53-.17-1.49-.41a16.8,16.8,0,0,1-2.16-.61,3.44,3.44,0,0,1-1.42-1,2.81,2.81,0,0,1-.59-1.89,3.1,3.1,0,0,1,1.18-2.52,5,5,0,0,1,3.27-1A5.25,5.25,0,0,1,161.27,25.52Z"/><path class="cls-1" d="M183.15,25.13A4,4,0,0,1,184.68,27V20.57h3V36.48h-3V34a4.06,4.06,0,0,1-1.54,1.92,4.47,4.47,0,0,1-2.57.72,5.11,5.11,0,0,1-2.71-.73A4.94,4.94,0,0,1,176,33.78a7.35,7.35,0,0,1-.68-3.26,7.35,7.35,0,0,1,.68-3.26,4.94,4.94,0,0,1,1.88-2.12,5.12,5.12,0,0,1,2.71-.73A4.53,4.53,0,0,1,183.15,25.13ZM179.24,28a3.58,3.58,0,0,0-.86,2.54,3.54,3.54,0,0,0,.86,2.53,3.26,3.26,0,0,0,4.55,0,3.48,3.48,0,0,0,.89-2.5,3.51,3.51,0,0,0-.89-2.53,3,3,0,0,0-2.27-.94A3,3,0,0,0,179.24,28Z"/><path class="cls-1" d="M192.06,20a2.22,2.22,0,0,1,2.71,0,1.53,1.53,0,0,1,.52,1.19,1.5,1.5,0,0,1-.52,1.17,2.22,2.22,0,0,1-2.71,0,1.5,1.5,0,0,1-.52-1.17A1.53,1.53,0,0,1,192.06,20Zm2.86,4.61V36.48h-3V24.57Z"/><path class="cls-1" d="M206.3,25.13A3.86,3.86,0,0,1,207.83,27V24.57h3v12a6.61,6.61,0,0,1-.66,3,4.84,4.84,0,0,1-2,2.07,6.19,6.19,0,0,1-3.15.75,6.65,6.65,0,0,1-4.17-1.23A5.07,5.07,0,0,1,199,37.77h3a2.47,2.47,0,0,0,1,1.41,3.31,3.31,0,0,0,1.9.51A3,3,0,0,0,207,38.9a3.15,3.15,0,0,0,.82-2.38V34a3.92,3.92,0,0,1-1.53,1.92,4.53,4.53,0,0,1-2.58.72A5.11,5.11,0,0,1,201,35.9a4.94,4.94,0,0,1-1.88-2.12,7.35,7.35,0,0,1-.68-3.26,7.35,7.35,0,0,1,.68-3.26A4.94,4.94,0,0,1,201,25.15a5.12,5.12,0,0,1,2.71-.73A4.58,4.58,0,0,1,206.3,25.13ZM202.39,28a3.58,3.58,0,0,0-.86,2.54,3.54,3.54,0,0,0,.86,2.53,3.26,3.26,0,0,0,4.55,0,3.48,3.48,0,0,0,.89-2.5,3.51,3.51,0,0,0-.89-2.53,3,3,0,0,0-2.27-.94A3,3,0,0,0,202.39,28Z"/><path class="cls-1" d="M215.21,20a2.22,2.22,0,0,1,2.71,0,1.53,1.53,0,0,1,.52,1.19,1.5,1.5,0,0,1-.52,1.17,2.22,2.22,0,0,1-2.71,0,1.5,1.5,0,0,1-.52-1.17A1.53,1.53,0,0,1,215.21,20Zm2.86,4.61V36.48h-3V24.57Z"/><path class="cls-1" d="M228.44,33.88v2.6h-1.59a4.4,4.4,0,0,1-3.06-1,4.19,4.19,0,0,1-1.06-3.22V27.13h-1.66V24.57h1.66V21.63h3v2.95h2.67v2.56h-2.67v5.2a1.68,1.68,0,0,0,.34,1.2,1.6,1.6,0,0,0,1.16.34Z"/><path class="cls-1" d="M239,25.13A3.86,3.86,0,0,1,240.53,27V24.57h3V36.48h-3V34A3.92,3.92,0,0,1,239,35.91a4.53,4.53,0,0,1-2.58.72,5.11,5.11,0,0,1-2.71-.73,4.94,4.94,0,0,1-1.88-2.12,7.35,7.35,0,0,1-.68-3.26,7.35,7.35,0,0,1,.68-3.26,4.94,4.94,0,0,1,1.88-2.12,5.12,5.12,0,0,1,2.71-.73A4.58,4.58,0,0,1,239,25.13ZM235.09,28a3.58,3.58,0,0,0-.86,2.54,3.54,3.54,0,0,0,.86,2.53,3.26,3.26,0,0,0,4.55,0,3.48,3.48,0,0,0,.89-2.5,3.51,3.51,0,0,0-.89-2.53,3,3,0,0,0-2.27-.94A3,3,0,0,0,235.09,28Z"/><path class="cls-1" d="M250.75,20.57V36.48h-3V20.57Z"/><circle class="cls-2" cx="169.63" cy="34.56" r="1.83" transform="translate(-0.17 68.3) rotate(-22.75)"/><path class="cls-2" d="M55.07,15.94a25.1,25.1,0,0,1-1.77,5.14c-.16.36-.33.71-.52,1.05s-.24.43-.36.65H52a14.29,14.29,0,0,1-3.28-.38A14.17,14.17,0,0,1,38,11.3a13.86,13.86,0,0,1-.26-2.68V8.57l.09,0,.84-.41-.9-.55a14.22,14.22,0,0,1,.46-2.67q.78.41,1.53.89c.49.31,1,.64,1.45,1l.18.13h0c1.81-.76,3.66-1.44,5.54-2,.85-.27,1.7-.52,2.56-.75a4.82,4.82,0,0,1,6,4.3A25.65,25.65,0,0,1,55.07,15.94Z"/><path class="cls-1" d="M55.65,8.41a4.82,4.82,0,0,0-6-4.3c-.86.23-1.71.48-2.56.75-1.88.58-3.73,1.27-5.54,2h0l-.18-.13c-.47-.35-1-.68-1.45-1s-1-.61-1.53-.89a25.34,25.34,0,0,0-6.35-2.37,25.54,25.54,0,0,0-13,.43A25.69,25.69,0,0,0,14.38.35a4.1,4.1,0,0,0-3.49.08C10.34.7,9.8,1,9.27,1.31a26.12,26.12,0,0,0-4.13,3,25.81,25.81,0,0,0-4.5,5.3A4.1,4.1,0,0,0,.2,13.1a25.65,25.65,0,0,0,2.24,5,25.32,25.32,0,0,0-1.1,3.58,25,25,0,0,0,5,21.67l0,.07.5.58a25.4,25.4,0,0,0,5.89,5.07,5.37,5.37,0,0,1-.7-1.28,5.31,5.31,0,0,1-.33-1.4c0-.15,0-.3,0-.47a5.19,5.19,0,0,1,0-.71v0a22.78,22.78,0,0,1-2.43-2.3l0-.06.23-.57.13-.3.24-.54.13-.32.24-.53.15-.32.24-.52.15-.33.25-.52.16-.32.26-.52.16-.32.27-.52v0l.16-.29a.88.88,0,0,1,.07-.14l.2-.38.17-.3.28-.51.17-.3,0,0v.06h0a3.88,3.88,0,0,0,.78,2.31L14,38l0,0a3,3,0,0,1,.25.3,3.81,3.81,0,0,1,.52.94,4,4,0,0,1,.26,1.37A4,4,0,0,1,14.85,42a3.91,3.91,0,0,1-.5,1,4,4,0,0,1-.26.33l-.13.16-.13.17a3.93,3.93,0,0,0-.73,2.33c0,.12,0,.23,0,.34a3.94,3.94,0,0,0,.24,1,4,4,0,0,0,.52.94,3.84,3.84,0,0,0,.26.31l0,0a2.94,2.94,0,0,1,.25.3,4.05,4.05,0,0,1,.52.95,4.14,4.14,0,0,1,.17.55h0a3.62,3.62,0,0,1,.09.82,3.92,3.92,0,0,1-.73,2.34,4,4,0,0,1-.26.33l-.13.16-.13.17a3.94,3.94,0,0,0-.47,3.7,3,3,0,0,0,.14.33,32.71,32.71,0,0,0,3.54,1.22l-.12-.15-.14-.16c-.09-.11-.18-.21-.27-.32a3.79,3.79,0,0,1-.52-.94,3.95,3.95,0,0,1,0-2.75,3.77,3.77,0,0,1,.5-1,3.5,3.5,0,0,1,.24-.31l0,0c.09-.1.17-.2.25-.31a4,4,0,0,0,.5-1,4.07,4.07,0,0,0,.22-1c.34.12.69.23,1,.33l.22.07v0a2.49,2.49,0,0,0,.1-.73A2.58,2.58,0,0,0,19,50.3l0-.11,0-.06a2.45,2.45,0,0,0-.26-.42v0l-.14-.17,0,0,0,0c-.11-.13-.22-.26-.33-.41L18,48.88c-.36-.13-.71-.28-1.06-.43h0l-.4-.18h0a4,4,0,0,1-.52-.95,4,4,0,0,1,.47-3.71,3,3,0,0,1,.24-.3l0,0,.24-.32a3.93,3.93,0,0,0,.73-2.33,4.06,4.06,0,0,0-.26-1.38,3.88,3.88,0,0,0-.52-.94l-.13-.17L16.67,38a4,4,0,0,1-.27-.32,3.94,3.94,0,0,1-.79-2.32A3.93,3.93,0,0,1,16.35,33a3.68,3.68,0,0,1,.24-.31l0,0,.24-.31a3.91,3.91,0,0,0,.5-1,3.64,3.64,0,0,0,.17-.62A3.56,3.56,0,0,0,17.6,30a4,4,0,0,0-.2-1.21l.36-.48.11-.15L18,28l.13-.17.1-.12.15-.18.54-.69.13.19c.08.11.16.21.25.31l0,0a3,3,0,0,1,.25.3,3.89,3.89,0,0,1,.52.95,3.62,3.62,0,0,1,.18.6,4.05,4.05,0,0,1,.09.77,3.89,3.89,0,0,1-.23,1.38c0,.09-.06.18-.11.27a3.81,3.81,0,0,1-.39.69,3.46,3.46,0,0,1-.26.33l-.13.16-.13.17a3.93,3.93,0,0,0-.73,2.33,3.94,3.94,0,0,0,.79,2.32c.08.11.16.21.25.31l0,0a3,3,0,0,1,.25.3,3.89,3.89,0,0,1,.52.94,4.06,4.06,0,0,1,.26,1.37,3.93,3.93,0,0,1-.73,2.33c-.08.11-.17.22-.26.33l-.13.16-.13.17a3.91,3.91,0,0,0-.5,1,4,4,0,0,0-.23,1.38,4,4,0,0,0,.26,1.37,3.8,3.8,0,0,0,.52.94,3.09,3.09,0,0,0,.25.31l0,0c.09.1.17.2.25.3a3.84,3.84,0,0,1,.41.67l0,.09.08.19a4,4,0,0,1,.26,1.38,4,4,0,0,1-.15,1.12l-.08.25a4,4,0,0,1-.5,1c-.09.11-.17.22-.26.33L19.5,54l-.13.17a3.9,3.9,0,0,0-.5,1,3.95,3.95,0,0,0,0,2.75,3.8,3.8,0,0,0,.52.94l.25.31,0,0a3.53,3.53,0,0,1,.25.3,3.88,3.88,0,0,1,.44.75l2.79.37a1.89,1.89,0,0,0-.07-.21,4,4,0,0,0-.52-.94l-.13-.16-.14-.16c-.09-.1-.18-.21-.27-.32a3.89,3.89,0,0,1-.52-.95,3.94,3.94,0,0,1,0-2.75,3.77,3.77,0,0,1,.5-1c.07-.11.15-.21.24-.31l0,0,.25-.32a3.79,3.79,0,0,0,.41-.73c.37,0,.73.09,1.1.12l.37,0a25.22,25.22,0,0,0,9.44-1.1,25.57,25.57,0,0,0,17.91-23v0c0-.15,0-.3,0-.44s0,0,0,0,0-.31,0-.47h0c0-.61,0-1.23,0-1.84,0,0,0-.06,0-.09s0-.09,0-.14,0-.29,0-.43v0c0-.37-.07-.73-.12-1.1.3-.45.58-.92.84-1.39.12-.21.24-.43.36-.65s.36-.69.52-1.05a25.1,25.1,0,0,0,1.77-5.14A25.65,25.65,0,0,0,55.65,8.41ZM19.79,21.86l-.17.17-.52.56-.55.61h0l0,0h0l-.47.52-.33.39,0,.06-.3.35-.17.21-.09.11L17,25l-.13.16-.12.15H16.7v0l-.09.11-.14.18-.13.17-.44.56,0,0,0,.05h0l-.13.17-.49.65-.07.09-.24.32-.13.18-.26.35,0,0-.09.12-.15.2-.06.09-.43.61-.27.39-.34.51-.09.13-.12.18c-.24.35-.46.71-.69,1.07a62.76,62.76,0,0,0-4.77,9.09A23.66,23.66,0,0,1,5,36.13v0A22.38,22.38,0,0,1,3.84,22.28,23.12,23.12,0,0,1,5,18.52a22.73,22.73,0,0,1,2.16-4l0,0c.19-.28.39-.55.58-.82,0-.39,0-.79,0-1.19q0-1.44.09-2.84l-.41.43a25.9,25.9,0,0,0-2.37,3c-.47.69-.91,1.42-1.31,2.15a22.84,22.84,0,0,1-1.16-2.9A1.54,1.54,0,0,1,2.8,11,23.31,23.31,0,0,1,6.86,6.24q.77-.69,1.6-1.31A23.11,23.11,0,0,1,12,2.72a1.54,1.54,0,0,1,1.31,0,22.93,22.93,0,0,1,4.55,2.68l.54.41.64-.21a22.77,22.77,0,0,1,6.13-1.13,23.1,23.1,0,0,1,3.39.1l.34,0,.2,0,.59.08c.55.09,1.1.19,1.65.32a22.89,22.89,0,0,1,6.47,2.55l.9.55-.84.41-.09,0-.33.16L37,9l-.47.24-.39.21-.51.27-.32.17-.56.31-.15.09q-1.06.6-2.08,1.23l-.88.56h0l-1.27.84-1.42,1-.55.4-1,.77-.41.32-1.14.9-.68.56c-.42.35-.83.71-1.24,1.07l0,0-.11.1-.22.19-.06.05-.31.28-.86.8h0l-.82.79-.09.09Zm6.78,2.2a5,5,0,0,0,4.89-5.94,4.91,4.91,0,0,0-.77-1.85,3.53,3.53,0,0,0-.24-.32l.19-.13.48-.34,1.09-.74.05,0,.23.32a7.13,7.13,0,0,1,1.26,3.84c0,.07,0,.15,0,.22a7.18,7.18,0,0,1-12.14,5.2L21.34,24l.11-.11c.48-.53,1-1,1.41-1.48h0l.28.29A5,5,0,0,0,26.58,24.06Zm-2-3.37.45-.42c.74-.68,1.38-1.22,1.87-1.63l.47-.38c.42-.34.67-.52.71-.55h0l.37-.29,0,0a2.6,2.6,0,0,1,.24.32A2.57,2.57,0,0,1,24.87,21,2.38,2.38,0,0,1,24.59,20.69Zm28-5.32a24.42,24.42,0,0,1-.74,2.56,23.91,23.91,0,0,1-1,2.44,30.6,30.6,0,0,0-4.2-8.44,11,11,0,0,1-1.33,2.43c.74,1.23,1.28,2.29,1.28,2.29a22.91,22.91,0,0,1,1.57,3.72c.22.67.4,1.35.56,2a.38.38,0,0,1,0,.06c.11.53.21,1.06.29,1.59,0,.16,0,.31.06.47s0,.37.07.56,0,.15,0,.24,0,.43,0,.64c0,0,0,.06,0,.1,0,.28,0,.55,0,.83v0c0,.56,0,1.12,0,1.68A23,23,0,0,1,39.4,46.23l0,0h0a23.22,23.22,0,0,1-4.13,2.29h0l-.13.05a23.61,23.61,0,0,1-2.45.84,22.88,22.88,0,0,1-2.48.55c-.43.07-.86.13-1.31.18a23.67,23.67,0,0,1-2.57.13H26l-1.44-.09-.92-.06h-.09l-.2,0-.28,0a3,3,0,0,0-.11-.32,3.94,3.94,0,0,0-.52-.94l-.13-.17-.14-.16a3.36,3.36,0,0,1-.26-.32,3.9,3.9,0,0,1-.52-.95,4,4,0,0,1-.26-1.37,4,4,0,0,1,.23-1.38,3.88,3.88,0,0,1,.5-1,3,3,0,0,1,.24-.31l0,0a3.61,3.61,0,0,0,.25-.31,3.91,3.91,0,0,0,.5-1,4,4,0,0,0,.23-1.38,4,4,0,0,0-.26-1.37,3.91,3.91,0,0,0-.52-.95l-.13-.16-.13-.16A3.94,3.94,0,0,1,21,35.25a4,4,0,0,1,.73-2.33c.08-.11.16-.21.24-.31l0,0a3.75,3.75,0,0,0,.24-.31,4.73,4.73,0,0,0,.28-.45,3.7,3.7,0,0,0,.22-.5A4,4,0,0,0,23,29.93a4.41,4.41,0,0,0,0-.57,4.08,4.08,0,0,0-.21-.8,4.47,4.47,0,0,0-.49-.9h0a9.61,9.61,0,0,0,13.93-8.57h0a9.54,9.54,0,0,0-1.64-5.36l-.23-.32.33-.2.09-.05.76-.45.14-.08.72-.41.21-.11.67-.37.26-.14L38,11.3l.07,0,.31-.16,0,0,.56-.28.35-.17.56-.27.34-.16.58-.27h0l.08,0,.14-.06.69-.3,0,0q.88-.38,1.78-.74Q45.48,8,47.4,7.43q1.42-.46,2.86-.85a2.26,2.26,0,0,1,2.84,2A23,23,0,0,1,52.57,15.37Z"/><circle class="cls-1" cx="39.87" cy="28.21" r="1.9" transform="translate(-7.81 17.62) rotate(-22.75)"/><path class="cls-1" d="M33.84,37.32V36.11a3.36,3.36,0,0,0,1.28-1.4A1.34,1.34,0,0,0,34,32.79H31.37a1.33,1.33,0,0,0-1.21,1.84,3.51,3.51,0,0,0,1.3,1.46V37.3a2.63,2.63,0,0,1-2.1,1v2.37a5.7,5.7,0,0,0,3.27-1.4,5.62,5.62,0,0,0,3.31,1.4V38.34A2.5,2.5,0,0,1,33.84,37.32Z"/></svg>